<?xml version="1.0" standalone="no"?>
<!DOCTYPE svg PUBLIC "-//W3C//DTD SVG 1.1//EN" "http://www.w3.org/Graphics/SVG/1.1/DTD/svg11.dtd" >
<!--
2013-9-30: Created.
-->
<svg>
<metadata>
Created by iconfont
</metadata>
<defs>

<font id="iconfont" horiz-adv-x="1024" >
  <font-face
    font-family="iconfont"
    font-weight="500"
    font-stretch="normal"
    units-per-em="1024"
    ascent="896"
    descent="-128"
  />
    <missing-glyph />
    
    <glyph glyph-name="x" unicode="x" horiz-adv-x="1001"
d="M281 543q-27 -1 -53 -1h-83q-18 0 -36.5 -6t-32.5 -18.5t-23 -32t-9 -45.5v-76h912v41q0 16 -0.5 30t-0.5 18q0 13 -5 29t-17 29.5t-31.5 22.5t-49.5 9h-133v-97h-438v97zM955 310v-52q0 -23 0.5 -52t0.5 -58t-10.5 -47.5t-26 -30t-33 -16t-31.5 -4.5q-14 -1 -29.5 -0.5
t-29.5 0.5h-32l-45 128h-439l-44 -128h-29h-34q-20 0 -45 1q-25 0 -41 9.5t-25.5 23t-13.5 29.5t-4 30v167h911zM163 247q-12 0 -21 -8.5t-9 -21.5t9 -21.5t21 -8.5q13 0 22 8.5t9 21.5t-9 21.5t-22 8.5zM316 123q-8 -26 -14 -48q-5 -19 -10.5 -37t-7.5 -25t-3 -15t1 -14.5
t9.5 -10.5t21.5 -4h37h67h81h80h64h36q23 0 34 12t2 38q-5 13 -9.5 30.5t-9.5 34.5q-5 19 -11 39h-368zM336 498v228q0 11 2.5 23t10 21.5t20.5 15.5t34 6h188q31 0 51.5 -14.5t20.5 -52.5v-227h-327z" />
    

    
    <glyph glyph-name="pipei" unicode="&#58881;" d="M510.759 896C228.679 896 0 667.323 0 385.252c0-117.224 39.911-224.892 106.318-311.091l38.377 39.956C95.222 180.79700000000003 63.249 261.21000000000004 56.233 348.775l220.465 0c16.665-107.625 105.717-190.467 215.8-198.984l0-219.895c-83.913 3.356-161.914 29.321-228.223 72.049l-34.636-42.919c80.66-53.305 177.202-84.525 281.12-84.525 282.078 0 510.748 228.672 510.748 510.752C1021.507 667.323 792.836 896 510.759 896zM492.498 204.45600000000002c-79.903 8.023-144.782 66.934-160.493 144.319l160.493 0L492.498 204.45600000000002zM492.498 403.498l-162.33 0c8.664 85.968 76.465 153.749 162.33 162.437L492.498 403.498zM492.498 621.511c-116.356-8.884-209.087-101.64-217.971-218.013L55.647 403.498C65.055 640.723 255.29 830.954 492.498 840.377L492.498 621.511zM547.221 839.48C775.889 821.321 956.69 634.637 965.857 403.498L746.951 403.498c-8.415 110.212-92.072 199.151-199.73 215.836L547.221 839.48zM547.221 563.813c77.128-15.798 136.044-80.477 144.089-160.315L547.221 403.498 547.221 563.813zM547.221 348.775l142.252 0c-14.502-71.43-70.847-127.4-142.252-141.949L547.221 348.775zM547.221-69.024L547.221 151.45600000000002c101.593 15.785 181.821 95.668 197.559 197.318l220.158 0C947.26 126.07799999999997 769.872-51.35299999999995 547.221-69.024z"  horiz-adv-x="1024" />

    
    <glyph glyph-name="location" unicode="&#58961;" d="M512 288c-105.888 0-192 86.112-192 192s86.112 192 192 192 192-86.112 192-192S617.888 288 512 288zM512 608c-70.592 0-128-57.408-128-128s57.408-128 128-128c70.592 0 128 57.408 128 128S582.592 608 512 608zM512-64c-7.936 0-15.904 2.944-22.08 8.832-12.768 12.224-13.248 32.48-1.056 45.248C575.392 80.8 800 345.664 800 480c0 158.784-129.184 288-288 288-158.784 0-288-129.216-288-288 0-75.616 72.544-206.08 204.256-367.424 11.2-13.728 9.152-33.888-4.544-45.024-13.696-11.168-33.888-9.152-45.024 4.544C233.568 249.824 160 387.072 160 480 160 674.08 317.92 832 512 832s352-157.92 352-352c0-187.36-315.424-520.032-328.832-534.08C528.864-60.672 520.448-64 512-64z"  horiz-adv-x="1024" />

    
    <glyph glyph-name="canyin" unicode="&#59003;" d="M277.216 745C173.571 745 89.25 643.948 89.25 519.748c0-95.171 48.715-178.449 122.288-211.1l-23.713-366.893c0-47.832 38.909-86.755 86.74-86.755s86.74 38.923 86.711 87.711L337.694 306.62c75.601 30.724 127.489 116.523 127.489 213.128C465.183 643.948 380.861 745 277.216 745zM317.762 330.884l-10.314-3.39 0.102-10.835 24.09-374.904c0-31.478-25.596-57.088-57.074-57.088s-57.074 25.61-57.103 56.132l23.988 371.167 0.391 16.746-9.894 3.665c-66.547 24.568-113.032 101.617-113.032 187.373 0 107.846 71.009 195.585 158.299 195.585s158.299-87.74 158.299-195.585C435.516 431.298 387.09 353.641 317.762 330.884zM905.084 700.848l0-221.051c0-65.779-43.965-124.939-106.919-143.886l-10.966-3.303 0.492-13.53c0.087-2.347 0.188-4.693 0.218-8.068l23.944-369.254c0-31.478-25.61-57.088-57.088-57.088s-57.088 25.61-57.117 56.132l24.018 371.167c0 2.81 0.116 5.504 0.261 9.141l0.464 11.487-11.01 3.317c-62.955 18.947-106.918 78.107-106.918 143.886L604.463 700.848l-29.668 0 0-221.051c0-74.891 47.615-142.641 117.117-168.628l-23.901-369.414c0-47.832 38.923-86.755 86.755-86.755s86.755 38.923 86.726 87.711l-23.887 368.458c69.517 25.958 117.146 93.723 117.146 168.628L934.751 700.848 905.084 700.848zM684.062 700.848l26.711 0 0-207.667-26.711 0 0 207.667ZM798.759 700.848l26.712 0 0-207.667-26.712 0 0 207.667Z"  horiz-adv-x="1024" />

    
    <glyph glyph-name="stop" unicode="&#59067;" d="M510.853 828.549q91.765 0 173.333-35.176t141.725-95.843 95.333-141.725 35.176-172.824q0-92.784-35.176-173.843t-95.333-141.725-141.725-95.333-173.333-34.667q-92.784 0-173.843 34.667t-141.725 95.333-95.333 141.725-34.667 173.843q0 91.765 34.667 172.824t95.333 141.725 141.725 95.843 173.843 35.176zM507.795 706.196q-66.275 0-124.392-24.98t-101.451-68.314-68.314-101.451-24.98-124.392q0-50.98 14.275-95.333t40.784-83.098l442.51 441.49q-38.745 26.51-83.608 41.294t-94.824 14.784zM507.795 67.922q65.255 0 123.373 24.98t101.451 68.314 68.314 101.451 24.98 124.392q0 94.824-49.961 173.333l-441.49-441.49q38.745-24.471 81.569-37.725t91.765-13.255z"  horiz-adv-x="1024" />

    
    <glyph glyph-name="false" unicode="&#58927;" d="M510.948041 831.696462c-247.25636 0-447.696462-200.440102-447.696462-447.696462s200.440102-447.696462 447.696462-447.696462 447.696462 200.440102 447.696462 447.696462S758.204401 831.696462 510.948041 831.696462zM673.876808 157.95984699999997l-161.754011 156.582221-156.582221-161.754011-73.52455 71.174016 156.582221 161.754011-161.754011 156.582221 71.174016 73.52455 161.754011-156.582221 156.582221 161.754011 73.52455-71.174016-156.582221-161.754011 161.754011-156.582221L673.876808 157.95984699999997z"  horiz-adv-x="1024" />

    
    <glyph glyph-name="jincheng" unicode="&#59183;" d="M69.284 408.471h53.835q21.534 0 34.748 3.915t25.939 14.682l15.661 15.661q9.788 9.788 20.555 22.513t22.024 25.939 21.045 24.96q19.576 24.471 35.238 19.087t23.492-23.002l43.068-118.438q33.28 92.988 58.729 168.358 10.767 32.301 21.534 63.134t19.576 56.772 14.682 43.068 6.852 22.024q4.894 16.64 14.682 26.918t21.534 10.278q12.725 0 26.428-7.341t17.619-29.854q0.979-5.873 3.915-31.322t7.831-63.624 10.278-84.668 11.256-94.456q12.725-112.565 29.365-251.558 21.534 70.475 39.153 128.226 6.852 24.471 14.193 48.452t13.704 44.047 10.278 33.769 5.873 17.619q4.894 15.661 11.746 23.492t18.598 10.767q22.513 5.873 33.769-6.362t11.256-24.96q0-10.767-1.958-18.598-0.979-3.915-0.979-6.852l35.238-95.925q0.979 0.979 2.936 3.915 2.936 4.894 9.788 20.555 7.831 16.64 25.939 22.024t34.748 4.405q10.767-0.979 21.534-0.979h45.026v-74.391q-5.873-0.979-11.746-0.979h-25.449q-13.704 0.979-25.449-7.341t-16.64-16.151q-3.915-7.831-13.704-30.344t-17.619-46.005q-3.915-11.746-12.725-15.661t-18.108-3.426-17.619 5.384-11.256 11.746-9.788 23.981-13.704 34.748q-8.809 20.555-17.619 44.047-25.449-81.242-46.005-149.76-8.809-29.365-17.619-57.751t-16.151-52.367-12.235-40.621-5.873-22.513q-4.894-23.492-18.598-37.195t-33.28-12.725q-20.555 1.958-29.365 17.619t-10.767 36.216q0 4.894-2.447 30.344t-6.362 64.602-8.32 87.115-9.299 97.882q-10.767 116.48-25.449 260.367-27.407-80.264-48.941-143.887-8.809-27.407-18.108-53.835t-16.64-47.962-12.235-36.216l-5.873-17.619q-4.894-12.725-13.214-23.492t-25.939-9.788q-17.619 0-26.428 12.235t-13.704 27.896q-2.936 7.831-10.767 30.344t-16.64 46.005q-10.767 27.407-22.513 60.687-6.852-8.809-14.682-17.619-6.852-7.831-14.682-17.129t-15.661-18.108q-15.661-18.598-29.365-25.449t-32.301-4.894q-9.788 0.979-25.939 0.489t-32.791-0.489q-18.598-0.979-41.111-0.979v76.348z"  horiz-adv-x="1024" />

    
    <glyph glyph-name="qiehuan" unicode="&#58923;" d="M618.688 746.688l0-213.376L64 533.312 64 448l896 0L618.688 746.688zM405.312 21.312000000000012l0 213.376L960 234.688 960 320 64 320 405.312 21.312000000000012z"  horiz-adv-x="1024" />

    
    <glyph glyph-name="msg" unicode="&#58959;" d="M840.655667 703.881419c30.637211 0 55.523164-24.938145 55.523164-55.562052L896.178831 257.06915000000004c0-30.561482-24.88493-55.373755-55.523164-55.373755l-136.680355 0c-35.389673 0-64.0252-28.626317-64.0252-63.938215 0 0 0-5.937507 0-15.249017-39.891412 32.374868-79.782825 64.811137-79.782825 64.811137-11.379711 9.313556-25.63505 14.376095-40.391833 14.376095l-336.448517 0c-30.574786 0-55.459716 24.812272-55.459716 55.373755L127.86722 648.319367c0 30.62493 24.88493 55.562052 55.459716 55.562052L840.655667 703.881419M840.655667 767.882058l-657.327708 0c-65.964458 0-119.48594-53.562416-119.48594-119.561668L63.84202 257.06915000000004c0-65.874403 53.521481-119.374394 119.48594-119.374394l336.448517 0c0 0 139.181436-113.249613 158.064387-128.000256 8.87863-6.874901 15.256181-9.81193 19.508222-9.81193 4.752462 0 6.877971 3.750597 6.753122 9.81193-0.188297 11.375617-0.124849 128.000256-0.124849 128.000256l136.680355 0c66.089308 0 119.548365 53.499991 119.548365 119.374394L960.206078 648.319367C960.204031 714.319643 906.744975 767.882058 840.655667 767.882058L840.655667 767.882058zM752.120084 447.88193c0-26.56221-21.571306-47.999456-48.019923-47.999456-26.510019 0-48.019923 21.437247-48.019923 47.999456 0 26.563233 21.509905 47.999456 48.019923 47.999456C730.548778 495.881387 752.120084 474.44414 752.120084 447.88193zM560.042437 447.88193c0-26.56221-21.571306-47.999456-48.0189-47.999456-26.542766 0-48.019923 21.437247-48.019923 47.999456 0 26.563233 21.477157 47.999456 48.019923 47.999456C538.470108 495.881387 560.042437 474.44414 560.042437 447.88193zM367.96479 447.88193c0-26.56221-21.571306-47.999456-48.019923-47.999456-26.541743 0-48.0189 21.437247-48.0189 47.999456 0 26.563233 21.477157 47.999456 48.0189 47.999456C346.393484 495.881387 367.96479 474.44414 367.96479 447.88193z"  horiz-adv-x="1025" />

    
    <glyph glyph-name="sanjiao-up" unicode="&#59342;" d="M641.871634 609.559716l382.600444-459.031864L259.343028 150.52785200000005 641.871634 609.559716z"  horiz-adv-x="1284" />

    
    <glyph glyph-name="sanjiao-right" unicode="&#58908;" d="M331.02 767.722l-0.004-0.002c-7.081 5.79-16.128 9.267-25.988 9.267-22.689 0-41.084-18.394-41.088-41.082l-0.177-0.083 0.182-703.881c0.086-22.618 18.445-40.928 41.083-40.928 10.762 0 20.553 4.142 27.878 10.912L744.599 352.15999999999997c9.838 7.507 16.192 19.348 16.192 32.678 0 12.943-5.991 24.481-15.344 32.013l0 0.011L331.366 767.427c-0.09 0.075-0.177 0.151-0.267 0.226l-0.079 0.067L331.02 767.722z"  horiz-adv-x="1024" />

    
    <glyph glyph-name="pick-item" unicode="&#59372;" d="M484.646514 670.822494l475.048413 0 0-108.793822-475.048413 0 0 108.793822ZM484.646514 438.396911l475.048413 0 0-108.793822-475.048413 0 0 108.793822ZM484.646514 205.972351l475.048413 0 0-108.794845-475.048413 0 0 108.794845ZM64.303027 640.996189L116.22763 692.921815 190.406073 618.743372 302.910403 731.246679 352.55508 681.600979 189.363324 518.4102459999999ZM64.303027 400.148795L116.22763 452.073398 190.406073 377.895979 302.910403 490.399285 352.55508 440.792471 189.363324 277.599691ZM64.303027 159.30140200000005L116.22763 211.226005 190.406073 137.048585 302.910403 249.55189199999995 352.55508 199.94507699999997 189.363324 36.75332100000003Z"  horiz-adv-x="1024" />

    
    <glyph glyph-name="fahuo" unicode="&#59093;" d="M968.9 544.2l-57.5 52.2c-31 28.1-71.1 43.6-112.9 43.6L640 640l0 80.5c0 62-50.5 112.5-112.5 112.5l-415 0c-62 0-112.5-50.5-112.5-112.5l0-720.5 128 0c0-70.6 57.4-128 128-128s128 57.4 128 128l192 0 64 0c0-70.6 57.4-128 128-128s128 57.4 128 128l128 0L1024 419.8C1024 467.1 1003.9 512.4 968.9 544.2zM925.9 496.8c21.7-19.7 34.1-47.7 34.1-77l0-99.8-128 0L832 570.5c13.3-4.5 25.7-11.8 36.4-21.5L925.9 496.8zM256-64c-35.3 0-64 28.7-64 64s28.7 64 64 64 64-28.7 64-64S291.3-64 256-64zM576 64 366.8 64c-22.2 38.2-63.5 64-110.8 64s-88.7-25.8-110.8-64L64 64l0 656.5c0 26.7 21.8 48.5 48.5 48.5l415 0c26.7 0 48.5-21.8 48.5-48.5l0-80.5L576 64zM768-64c-35.3 0-64 28.7-64 64s28.7 64 64 64 64-28.7 64-64S803.3-64 768-64zM878.8 64c-22.2 38.2-63.5 64-110.8 64s-88.7-25.8-110.8-64L640 64l0 512 128 0 0-320 192 0 0-192L878.8 64z"  horiz-adv-x="1024" />

    
    <glyph glyph-name="arrow-right" unicode="&#58882;" d="M336.733 776.333l-56.278-55.72 334.857-337.154-337.673-334.315 55.802-56.184 393.944 390.04z"  horiz-adv-x="1024" />

    
    <glyph glyph-name="danger" unicode="&#58990;" d="M512 554.666667c-23.466667 0-42.666667-19.2-42.666667-42.666667l21.333333-234.666667c0-12.8 8.533333-21.333333 21.333333-21.333333s21.333333 8.533333 21.333333 21.333333l21.333333 234.666667C554.666667 535.466667 535.466667 554.666667 512 554.666667zM512 213.333333c-23.466667 0-42.666667-19.2-42.666667-42.666667s19.2-42.666667 42.666667-42.666667 42.666667 19.2 42.666667 42.666667S535.466667 213.333333 512 213.333333zM970.666667 128l-384 597.333333c0 0-19.2 42.666667-74.666667 42.666667-51.2 0-74.666667-42.666667-74.666667-42.666667l-384-597.333333c0 0-10.666667-14.933333-10.666667-42.666667 0-46.933333 38.4-85.333333 85.333333-85.333333l768 0c46.933333 0 85.333333 38.4 85.333333 85.333333C981.333333 115.2 970.666667 128 970.666667 128zM896 42.666667 128 42.666667c-23.466667 0-42.666667 19.2-42.666667 42.666667 0 8.533333 2.133333 14.933333 2.133333 17.066667 0 0 0 0 2.133333 2.133333l384 597.333333c0 0 2.133333 2.133333 2.133333 2.133333 0 0 12.8 21.333333 36.266667 21.333333 25.6 0 34.133333-17.066667 36.266667-19.2 0-2.133333 2.133333-2.133333 2.133333-6.4l384-597.333333c0 0 2.133333-2.133333 2.133333-2.133333 0-2.133333 2.133333-6.4 2.133333-17.066667C938.666667 61.866667 919.466667 42.666667 896 42.666667z"  horiz-adv-x="1024" />

    
    <glyph glyph-name="chuchai" unicode="&#58993;" d="M378.432-52.411h-1.184c-14.322 1.314-24.469 6.947-31.566 16.354l-110.113 146.844-146.826 110.136c-8.369 5.104-14.85 15.911-16.27 28.577-1.206 10.935 2.5 22.077 10.445 31.335l57.916 58.617c7.542 7.496 18.091 11.754 29.043 11.754 2.712 0 6.949 0 11.63-1.673l101.62-27.775 124.117 124.118-275.667 151.382c-10.826 6.015-18.409 16.565-20.888 28.98-1.654 14.172 2.773 27.115 11.271 35.588l75.838 75.839c11.989 10.591 26.712 13.938 39.337 10.188l381.015-91.069 86.218 86.219c46.224 46.223 112.804 78.507 161.931 78.507 24.022 0 44.188-7.499 58.341-21.628 23.684-23.683 28.066-62.726 12.351-109.882-12.882-38.662-38.77-79.926-69.229-110.389l-86.899-86.896 92.111-400.652c3.706-14.851-2.037-31.246-14.723-41.395l-76.369-57.259c-6.080-4.936-14.913-7.902-24.255-7.902-1.757 0-5.297 0-9.851 1.357-12.118 2.963-21.757 10.802-26.544 21.584l-150.596 274.040-124.117-124.12 28.090-102.783c3.686-13.557 0.256-27.58-9.469-38.512l-57.746-57.789c-7.458-7.459-18.007-11.695-28.962-11.695zM117.108 253.78l151.296-114.477 110.433-147.225 53.532 53.508-34.319 125.642 182.797 182.799 177.837-323.821 71.645 53.768-97.127 422.427 103.884 103.887c25.931 25.929 47.899 60.861 58.744 93.442 9.956 29.868 9.258 54.357-1.864 65.478-5.909 5.911-15.23 8.919-27.665 8.919-37.939 0-93.125-27.667-131.256-65.799l-103.377-103.376-404.529 96.726-71.962-71.983 323.629-177.627-182.798-182.795-125.472 34.274-53.427-53.766zM378.432-56.505l-1.557 0.017c-15.115 1.387-26.386 7.264-34.46 17.966l-109.769 146.385-146.207 109.672c-9.617 5.96-16.52 18.011-18.033 31.509-1.334 12.097 2.717 24.33 11.406 34.456l0.194 0.212 57.916 58.617c8.302 8.252 19.939 12.97 31.955 12.97 2.837 0 7.567 0 12.855-1.857l99.181-27.107 118.579 118.58-270.885 148.756c-11.864 6.592-20.216 18.167-22.931 31.766l-0.052 0.327c-1.763 15.113 2.773 29.314 12.445 38.96l76.019 76.009c9.269 8.187 20.534 12.697 31.719 12.697 3.895 0 7.724-0.545 11.384-1.62l378.684-90.511 84.599 84.6c46.93 46.929 114.71 79.705 164.825 79.705 25.102 0 46.276-7.893 61.233-22.825 24.841-24.84 29.579-65.35 13.343-114.072-13.069-39.222-39.318-81.087-70.218-111.989l-85.297-85.295 91.603-398.443c4.112-16.47-2.224-34.362-16.155-45.508l-0.102-0.079-76.309-57.214c-6.898-5.571-16.65-8.765-26.771-8.765-1.9 0-5.842 0-10.922 1.498-13.225 3.264-23.834 11.898-29.143 23.712l-147.888 269.111-118.581-118.583 27.462-100.491c4.058-14.93 0.282-30.35-10.359-42.312l-0.163-0.173-57.746-57.789c-8.194-8.195-19.804-12.895-31.856-12.895zM377.439-48.318h0.995c9.896 0 19.397 3.825 26.066 10.496l57.659 57.702c8.71 9.844 11.81 22.461 8.501 34.631l-28.715 105.072 129.653 129.656 153.376-279.128c4.259-9.59 12.924-16.613 23.774-19.268l0.196-0.054c3.983-1.186 7.039-1.186 8.682-1.186 8.306 0 16.207 2.546 21.676 6.986l0.125 0.097 76.315 57.219c11.407 9.156 16.612 23.739 13.261 37.169l-92.636 402.935 88.502 88.5c30.042 30.046 55.553 70.715 68.24 108.789 15.204 45.626 11.169 83.162-11.363 105.693-13.386 13.364-32.56 20.429-55.447 20.429-48.12 0-113.518-31.79-159.037-77.308l-87.837-87.838-383.455 91.659c-2.936 0.872-6.018 1.314-9.163 1.314-9.15 0-18.453-3.751-26.206-10.564l-75.747-75.748c-7.856-7.834-11.538-19.508-10.118-32.054 2.277-11.169 9.133-20.654 18.829-26.042l280.429-153.997-129.652-129.657-104.211 28.495c-4.012 1.434-7.767 1.434-10.253 1.434-9.87 0-19.403-3.851-26.158-10.564l-57.787-58.486c-7.133-8.366-10.468-18.345-9.391-28.114 1.226-10.943 6.853-20.968 14.332-25.53l0.324-0.22 147.294-110.487 110.464-147.312c6.569-8.705 15.888-13.523 28.483-14.717zM378.394-14.153l-112.919 150.539-154.572 116.957 58.409 58.78 125.48-34.276 177.26 177.257-323.627 177.628 77.438 77.46 404.529-96.726 101.758 101.758c38.821 38.821 95.238 66.997 134.15 66.997 13.566 0 23.848-3.405 30.56-10.118 12.246-12.246 13.312-38.289 2.853-69.668-11.033-33.144-33.364-68.675-59.733-95.043l-102.28-102.284 97.216-422.813-77.547-58.196-177.482 323.175-177.26-177.26 34.319-125.642-58.551-58.525zM123.313 254.218l148.020-111.999 0.345-0.46 107.602-143.451 48.514 48.491-34.319 125.642 188.334 188.336 178.192-324.467 65.741 49.338-97.038 422.043 105.486 105.489c25.513 25.512 47.103 59.844 57.754 91.842 9.316 27.951 8.981 51.435-0.875 61.292-5.122 5.123-13.455 7.72-24.771 7.72-36.945 0-90.93-27.168-128.361-64.599l-104.996-104.996-404.528 96.726-66.486-66.506 323.629-177.629-188.336-188.332-125.462 34.272-48.444-48.75z"  horiz-adv-x="1024" />

    
    <glyph glyph-name="arrow-down" unicode="&#58937;" d="M959.429379 552.7851479999999L890.590548 621.621932 511.268336 242.300744 131.944078 621.621932 63.105247 552.7851479999999 501.1857 114.70571800000005 521.348925 114.70571800000005Z"  horiz-adv-x="1024" />

    
    <glyph glyph-name="daoqishijian" unicode="&#59044;" d="M511.98-108.308c-271.911 0-492.308 220.416-492.308 492.308 0 271.931 220.396 492.327 492.308 492.327 271.931 0 492.327-220.396 492.327-492.327 0-271.892-220.396-492.308-492.327-492.308zM511.98 814.789c-237.903 0-430.769-192.866-430.769-430.789 0-237.903 192.866-430.769 430.769-430.769 237.922 0 430.789 192.866 430.789 430.769 0 237.922-192.866 430.789-430.789 430.789zM773.967 322.462h-262.42c-9.275 0-17.467 4.293-23.020 10.929-4.49 5.278-7.306 11.993-7.306 19.417v0.276c0 0.059-0.020 0.098-0.020 0.158s0.020 0.079 0.020 0.158l-0.020 307.988c0.020 16.758 13.785 30.326 30.779 30.326 16.994 0 30.799-13.588 30.799-30.326l-0.020-277.386h231.168c16.778 0 30.385-13.765 30.366-30.759 0-17.014-13.568-30.779-30.326-30.779z"  horiz-adv-x="1024" />

    
    <glyph glyph-name="sanjiao-down" unicode="&#59061;" d="M511.997952 140.02573199999995l365.02634 487.950584L146.975708 627.976316 511.997952 140.02573199999995"  horiz-adv-x="1024" />

    
    <glyph glyph-name="arrow-left" unicode="&#58983;" d="M671.807-31.803999999999974l-415.632 415.804 415.632 415.803 63.445-63.616-352.017-352.209 352.017-352.102z"  horiz-adv-x="1024" />

    
    <glyph glyph-name="arrow-up" unicode="&#58985;" d="M96.196 224.19299999999998l415.804 415.632 415.803-415.632-63.616-63.445-352.209 352.017-352.102-352.017z"  horiz-adv-x="1024" />

    
    <glyph glyph-name="update" unicode="&#58932;" d="M819.3823 447.8341c-16.0901 0-27.947-13.058-27.947-29.1482v-356.57011200000005c0-38.3539-29.6376-70.9417-67.9096-70.9417h-520.00768c-38.272 0-82.7709 32.5878-82.7709 70.9417V583.90016c0 38.3805 44.5 79.275 82.7709 79.275h297.237504c16.0901 0 29.0662 11.9101 29.0662 28.0003 0 16.1178-12.9761 28.0003-29.0662 28.0003H203.517952c-76.4334 0-138.6619-58.5134-138.6619-135.2745v-521.78432c0-76.7345 62.2285-126.9422 138.6619-126.9422h520.00768c76.4887 0 123.8016 50.2077 123.8016 126.9422V418.68595200000004C847.3272 434.7761 835.4447 447.8341 819.3823 447.8341zM933.9494 764.0842l-42.5871 42.6957c-32.3983 32.5079-89.3266 32.5079-121.6983 0l-80.4485-94.7354L260.4739 300.841v-10.027008l-0.3277-1.7203-53.9249-183.1608 39.5827-35.4028 172.9987 61.1082 2.1852-0.4639h8.495104l409.9758 430.0534 94.4896 77.3079C967.4957 672.1618 967.4957 730.4018 933.9494 764.0842zM282.3823 146.17190000000005l25.1863 80.3645 50.3183-50.4801L282.3823 146.17190000000005zM409.0788 206.1046l-74.0844 74.2738 383.2852 382.0308 71.7066-71.9258L409.0788 206.1046zM893.3837 682.6783l-57.1197-57.257-83.1529 83.4263 57.0931 57.257c5.4077 5.3811 12.5932 8.3589 20.2957 8.3589 7.7036 0 14.9146-2.9778 20.2967-8.3589l42.5329-42.6967C904.5565 712.1541 904.5565 693.9064 893.3837 682.6783z"  horiz-adv-x="1024" />

    
    <glyph glyph-name="clear" unicode="&#58956;" d="M558.235532 383.303128L558.235532 383.303128l-23.118534 23.118534L558.235532 383.303128 558.235532 383.303128zM511.999488 831.176622c-246.986207 0-447.189925-200.177112-447.189925-447.163319s200.203718-447.189925 447.189925-447.189925c246.986207 0 447.189925 200.204741 447.189925 447.189925S758.985696 831.176622 511.999488 831.176622L511.999488 831.176622zM743.09989 198.439794l-46.208415-46.237067L512.027118 337.09471399999995 327.13513 152.20272699999998l-46.209438 46.237067 184.891987 184.863335L280.925692 568.16851l46.209438 46.238091 207.982892-207.983915-23.089881 23.090904 184.863335 184.893011 46.208415-46.238091L558.235532 383.303128 743.09989 198.439794 743.09989 198.439794zM743.09989 198.439794"  horiz-adv-x="1024" />

    
    <glyph glyph-name="refresh" unicode="&#58895;" d="M835.516 186.163l154.351 225.894h-109.158c-14.541 221.047-198.11 396.151-422.844 396.151-234.291 0-423.731-189.918-423.731-424.277 0-234.155 189.918-424.141 424.209-424.141 105.062 0 200.977 38.434 275.115 101.786l-56.73 73.045c-58.368-51.063-134.69-82.398-218.385-82.398-183.296 0-331.844 148.617-331.844 331.708 0 183.364 148.617 331.913 331.844 331.913 173.739 0 315.665-133.734 329.933-303.787h-107.11l154.351-225.894z"  horiz-adv-x="1024" />

    
    <glyph glyph-name="sanjiao-left" unicode="&#58883;" d="M692.98 0.27800000000002l0.004 0.002c7.081-5.79 16.128-9.267 25.988-9.267 22.69 0 41.084 18.394 41.088 41.082l0.177 0.083-0.182 703.881c-0.086 22.618-18.445 40.928-41.084 40.928-10.762 0-20.553-4.142-27.878-10.912l-411.692-350.235c-9.838-7.507-16.192-19.349-16.192-32.678 0-12.943 5.991-24.481 15.344-32.013v-0.011l414.081-350.564c0.091-0.075 0.177-0.151 0.267-0.226l0.078-0.067v-0.001z"  horiz-adv-x="1024" />

    
    <glyph glyph-name="dingdan" unicode="&#58912;" d="M762.30656 540.33408 384.67072 540.33408c-9.472 0-17.16736-8.4224-17.16736-18.7904 0-10.37312 7.69024-18.7904 17.16736-18.7904l377.63072 0c9.47712 0 17.16736 8.41728 17.16736 18.7904C779.4688 531.9168 771.77856 540.33408 762.30656 540.33408L762.30656 540.33408zM254.7712 521.54368c0-10.37312 6.72256-18.7904 15.03232-18.7904l45.09696 0c8.30464 0 15.03232 8.41728 15.03232 18.7904 0 10.368-6.72768 18.7904-15.03232 18.7904l-45.09696 0C261.49888 540.33408 254.7712 531.9168 254.7712 521.54368L254.7712 521.54368zM762.30656 333.64992 384.67072 333.64992c-9.472 0-17.16736-8.4224-17.16736-18.79552 0-10.368 7.69024-18.78528 17.16736-18.78528l377.63072 0c9.47712 0 17.16736 8.41728 17.16736 18.78528C779.4688 325.22752 771.77856 333.64992 762.30656 333.64992L762.30656 333.64992zM314.90048 333.64992l-45.09696 0c-8.30464 0-15.03232-8.4224-15.03232-18.79552 0-10.368 6.72256-18.78528 15.03232-18.78528l45.09696 0c8.30464 0 15.03232 8.41728 15.03232 18.78528C329.9328 325.22752 323.20512 333.64992 314.90048 333.64992L314.90048 333.64992zM762.30656 126.96064 384.67072 126.96064c-9.472 0-17.16736-8.4224-17.16736-18.78528 0-10.37312 7.69024-18.79552 17.16736-18.79552l377.63072 0c9.47712 0 17.16736 8.4224 17.16736 18.79552C779.4688 118.54336 771.77856 126.96064 762.30656 126.96064L762.30656 126.96064zM314.90048 126.96064l-45.09696 0c-8.30464 0-15.03232-8.4224-15.03232-18.78528 0-10.37312 6.72256-18.79552 15.03232-18.79552l45.09696 0c8.30464 0 15.03232 8.4224 15.03232 18.79552C329.9328 118.54336 323.20512 126.96064 314.90048 126.96064L314.90048 126.96064zM385.59232 671.86176l263.05024 0c20.72064 0 37.5808 16.85504 37.5808 37.5808L686.22336 803.38944c0 20.72064-16.86016 37.57568-37.5808 37.57568L385.59232 840.96512c-20.72576 0-37.5808-16.85504-37.5808-37.57568l0-93.94688C348.01152 688.7168 364.86656 671.86176 385.59232 671.86176L385.59232 671.86176zM385.59232 803.38944l263.05024 0 0.0256-93.94688L385.59232 709.44256 385.59232 803.38944 385.59232 803.38944zM874.12224 840.96512l-150.30784 0 0-37.57568 150.30784 0c31.08352 0 56.3712-25.28256 56.3712-56.3712l0-751.58528c0-31.08352-25.28256-56.36608-56.3712-56.36608L160.11264-60.93312c-31.08352 0-56.36608 25.28256-56.36608 56.36608L103.74656 747.01824c0 31.08352 25.28256 56.3712 56.36608 56.3712l150.31808 0 0 37.57568L160.11264 840.96512c-51.79904 0-93.94688-42.14784-93.94688-93.94688l0-751.58528c0-51.79904 42.14784-93.952 93.94688-93.952l714.00448 0c51.80416 0 93.952 42.14784 93.952 93.952L968.06912 747.01824C968.06912 798.8224 925.9264 840.96512 874.12224 840.96512L874.12224 840.96512z"  horiz-adv-x="1024" />

    
    <glyph glyph-name="baoxiao" unicode="&#58885;" d="M723.250068 390.934775h0.027645c15.370566 0 27.843538 12.459661 27.857872 27.830227 0.013311 15.398211-12.44635 27.884493-27.830227 27.884493l-68.22967 0.051195 75.520757 89.967779c9.888684 11.779801 8.351833 29.353768-3.427968 39.229142-11.76649 9.875374-29.353768 8.379477-39.255763-3.427968l-88.77393-105.757115-88.761642 105.757115c-9.875374 11.806422-27.462652 13.275697-39.255764 3.427968-11.779801-9.875374-13.316653-27.449342-3.427968-39.229142l75.439871-89.883821-71.943302 0.054266h-0.027645c-15.370566 0-27.843538-12.459661-27.857872-27.830227-0.013311-15.397188 12.44635-27.884493 27.830227-27.884493l98.299134-0.07372-0.038907-42.330491-98.205961 0.07372h-0.027645c-15.370566 0-27.843538-12.459661-27.857872-27.830227-0.013311-15.398211 12.44635-27.884493 27.830227-27.884493l98.209033-0.074743-0.069625-75.690723c-0.013311-15.398211 12.44635-27.857872 27.830227-27.884493h0.026621c15.370566 0 27.843538 12.459661 27.857872 27.830227l0.069625 75.703009 98.19265-0.07372h0.027645c15.370566 0 27.843538 12.459661 27.857872 27.830227 0.013311 15.398211-12.44635 27.884493-27.830227 27.884493l-98.196746 0.07372 0.038907 42.330491 98.102549-0.072696zM894.515366 768.668597H90.010783a27.87835 27.87835 0 0 1-24.361304-14.336442 27.868111 27.868111 0 0 1 0.720816-28.265378l64.570304-103.540404-64.570304-103.568048a27.905995 27.905995 0 0 1 0-29.489945l64.570304-103.540404-64.570304-103.567024a27.905995 27.905995 0 0 1 0-29.489946l64.570304-103.540403-64.570304-103.53938a27.868111 27.868111 0 0 1-0.720816-28.265378 27.87835 27.87835 0 0 1 24.361304-14.336442h804.504583c34.808006 0 63.114339 28.319644 63.114339 63.114339V705.554258c0 34.794695-28.30531 63.114339-63.114339 63.114339z m7.39962-702.364855a7.40781 7.40781 0 0 0-7.39962-7.399619H315.414018v27.856848c0 15.398211-12.472971 27.857872-27.857872 27.857872-15.383877 0-27.857872-12.459661-27.857872-27.857872v-27.856848H140.217l47.200089 75.682531a27.905995 27.905995 0 0 1 0 29.489945l-64.570304 103.540404 64.570304 103.567024a27.905995 27.905995 0 0 1 0 29.489946l-64.570304 103.540403 64.570304 103.567024a27.905995 27.905995 0 0 1 0 29.489946l-47.200089 75.682531h119.482298v-27.857872c0-15.398211 12.472971-27.857872 27.857872-27.857872 15.383877 0 27.857872 12.459661 27.857872 27.857872v27.857872h579.102372c4.080183 0 7.399619-3.319436 7.399619-7.399619v-639.250516zM287.556146 353.936679c-15.383877 0-27.857872-12.459661-27.857872-27.857872v-119.67274c0-15.398211 12.472971-27.856848 27.857872-27.856849 15.383877 0 27.857872 12.459661 27.857872 27.856849V326.078807c0 15.398211-12.472971 27.857872-27.857872 27.857872zM287.556146 593.281137c-15.383877 0-27.857872-12.459661-27.857872-27.857872v-119.672741c0-15.397188 12.472971-27.856848 27.857872-27.856848 15.383877 0 27.857872 12.459661 27.857872 27.856848V565.424288c0 15.397188-12.472971 27.856848-27.857872 27.856849z"  horiz-adv-x="1024" />

    
    <glyph glyph-name="wenjian" unicode="&#58909;" d="M910.096853 535.420353v61.707521c0 52.999376-42.030493 112.28336-98.281728 112.28336H528.430288l-11.681508 22.048347c-11.685603 22.352441-34.588894 36.229158-59.807189 36.229158H154.570848c-50.436591 0-91.447294-42.168717-91.447294-94.010079v-575.540275c0-51.814741 41.010703-93.969123 91.447294-93.969124h711.539892c50.436591 0 91.447294 42.154383 91.447294 93.969124V451.385989c-0.001024 30.633625-20.252452 63.054954-47.461181 84.034364z m-98.281728 117.546131c19.540851 0 41.838002-29.75206 41.838002-55.83861v-39.040748c-0.956309 0.038908-1.913642 0.097269-2.865855 0.097269H608.55341l-50.21748 94.782089h253.479195z m89.297134-554.828099c0-20.684531-15.709473-37.524373-35.002543-37.524374h-711.538868c-19.292047 0-35.002544 16.839842-35.002544 37.524374V673.67866c0 20.712176 15.709473 37.565329 35.002544 37.565329h302.370743c4.134449 0 7.882893-2.274049 9.867182-6.07676l99.825748-188.420497a28.252068 28.252068 0 0 1 24.94287-15.007087h259.209881c20.229926 0 50.326011-30.12373 50.326011-50.353656v-353.247604z"  horiz-adv-x="1024" />

    
    <glyph glyph-name="jiekuan" unicode="&#58910;" d="M958.293183 160.380373c-2.958005 32.348633-18.324476 61.629705-43.277585 82.419697-24.953109 20.817636-56.590142 30.486186-88.883485 27.665382a26.269826 26.269826 0 0 1-4.382229-0.76689L624.050938 219.217944c-12.040891 29.10394-38.697746 51.227031-71.774361 55.711648l-235.399427 36.320284c-24.295775 3.149471-48.235238-3.06756-67.710561-17.886253-11.120419-8.463436-19.995457-19.119011-26.158222-31.22543l-126.30035 28.733293c-15.037804 3.588718-30.129873-5.998944-33.553746-21.118658-3.451517-15.09207 5.998944-30.129873 21.118658-33.553746l151.225815-34.430192c7.64228-1.808181 15.722783-0.191467 22.186571 4.272673a28.134321 28.134321 0 0 1 11.833043 19.282833c1.260403 9.367527 6.1085 17.694786 13.641224 23.419329 7.505079 5.724543 16.68114 8.162414 25.665734 6.984945l235.398403-36.320284c19.365767-2.629338 32.979346-20.488969 30.348985-39.827091-2.629338-19.338122-20.487945-32.979346-39.634601-30.37663L308.057402 181.662854c-15.256915 2.109204-29.527829-8.463436-31.746589-23.803286-2.191115-15.338826 8.463436-29.55445 23.802262-31.746589l227.099813-32.485833a93.685507 93.685507 0 0 1 12.298911-0.82218c41.846193 0 78.78388 28.808037 88.821028 69.62113l204.948054 52.323612c16.708785 1.067912 32.924057-4.272673 45.825011-15.065449 8.27197-6.87539 14.599581-15.503672 18.598877-25.17222L533.348009 21.124802a27.931592 27.931592 0 0 1-12.886621-10.98629c-27.851729-21.294767-67.96346-19.233686-93.418273 6.221128a28.208041 28.208041 0 0 1-4.484618 3.645031 27.883469 27.883469 0 0 1-12.662389 6.654231l-313.162494 71.546035C81.668165 101.738365 66.576095 92.233638 63.152223 77.113923c-3.451517-15.09207 5.998944-30.129873 21.091014-33.581391l306.489833-70.021469c24.335706-22.645272 55.444414-34.010399 86.572576-34.010399 30.808709 0 61.608204 11.121442 85.854832 33.305966l378.067608 159.171164c11.258643 4.736494 18.160654 16.240869 17.065097 28.402579zM360.12709 550.128466h-0.027645c-15.476027 0-28.048315-12.545667-28.048315-28.02067 0-15.503672 12.545667-28.075959 28.02067-28.07596l125.218104-0.10034-0.095222-97.822004c-0.027645-15.503672 12.518022-28.048315 28.02067-28.07596h0.027645c15.476027 0 28.02067 12.544643 28.048314 28.02067l0.095222 97.832243 125.191482-0.100341h0.027645c15.476027 0 28.048315 12.545667 28.048315 28.02067 0 15.503672-12.544643 28.075959-28.02067 28.075959l-125.191482 0.100341 0.061433 63.097957 125.074759-0.089078h0.027645c15.476027 0 28.048315 12.544643 28.048315 28.02067 0 15.503672-12.544643 28.075959-28.02067 28.075959l-95.44659 0.0686 99.856464 118.945782c9.970595 11.860688 8.436815 29.55445-3.451517 39.497401-11.833043 9.94295-29.55445 8.436815-39.498424-3.451518L515.694178 690.262531 403.295119 824.148847c-9.915305 11.887309-27.637737 13.394468-39.4974 3.451518-11.887309-9.94295-13.422113-27.637737-3.451518-39.497401l99.789912-118.866942-100.009023 0.071672h-0.027645c-15.476027 0-28.048315-12.545667-28.048315-28.02067 0-15.503672 12.545667-28.075959 28.02067-28.07596l125.333803-0.090102-0.061434-63.092837-125.217079 0.100341z"  horiz-adv-x="1024" />

    
    <glyph glyph-name="qingjia" unicode="&#58919;" d="M121.009935 684.162222l168.945174-0.396244v-48.856736c0-15.452477 12.504711-27.957189 27.957189-27.957189s27.957189 12.504711 27.957189 27.957189v48.725679l214.675988-0.502728v-48.222951c0-15.452477 12.503688-27.957189 27.957189-27.957189 15.452477 0 27.957189 12.504711 27.957188 27.957189v48.091894l145.301615-0.340954v-243.807573h55.914377V682.660182c0 31.670821-25.745596 57.416417-57.416417 57.416417H616.459852V794.626138c0 15.439167-12.504711 27.957189-27.957188 27.957189-15.453501 0-27.957189-12.518022-27.957189-27.957189v-54.549539H345.869487V794.626138c0 15.439167-12.504711 27.957189-27.957189 27.957189s-27.957189-12.518022-27.957189-27.957189v-54.549539H121.009935c-31.670821 0-57.416417-25.745596-57.416417-57.416417v-539.760603c0-31.669797 25.745596-57.443038 57.416417-57.443038h338.190347v55.914377l-339.692387 1.528661 1.50204 541.262643zM256.158702 484.965332m-43.208984 0a43.208985 43.208985 0 1 1 86.417969 0 43.208985 43.208985 0 1 1-86.417969 0ZM446.91161 484.965332m-43.208985 0a43.208985 43.208985 0 1 1 86.417969 0 43.208985 43.208985 0 1 1-86.417969 0ZM632.07308 484.965332m-43.208985 0a43.208985 43.208985 0 1 1 86.417969 0 43.208985 43.208985 0 1 1-86.417969 0ZM256.158702 316.31401300000005m-43.208984 0a43.208985 43.208985 0 1 1 86.417969 0 43.208985 43.208985 0 1 1-86.417969 0ZM446.91161 316.31401300000005m-43.208985 0a43.208985 43.208985 0 1 1 86.417969 0 43.208985 43.208985 0 1 1-86.417969 0ZM739.83701 378.51607c-119.474107 0-216.668469-97.195386-216.668469-216.668469s97.195386-216.668469 216.668469-216.668469S956.506503 42.37349400000005 956.506503 161.84760100000005s-97.195386 216.668469-216.669493 216.668469z m0-377.42256c-88.650039 0-160.754092 72.105076-160.754091 160.754091s72.105076 160.754092 160.754091 160.754092S900.592126 250.49661600000002 900.592126 161.84760100000005s-72.105076-160.754092-160.755116-160.754091zM821.60654 189.80479000000003H767.794199v63.722527c0 15.452477-12.504711 27.957189-27.957189 27.957189s-27.957189-12.504711-27.957189-27.957189v-91.68074c0-15.452477 12.504711-27.957189 27.957189-27.957189 0.21092 0 0.418769 0.011263 0.627642 0.016383 0.209896-0.004096 0.417745-0.016382 0.627642-0.016383h80.513222c15.453501 0 27.957189 12.504711 27.957189 27.957189 0.002048 15.453501-12.502664 27.958213-27.956165 27.958213z"  horiz-adv-x="1024" />

    
    <glyph glyph-name="search" unicode="&#58963;" d="M439.323 120.52200000000005c-49.28 0-97.098 9.657-142.126 28.7-43.48 18.389-82.523 44.706-116.044 78.225s-59.841 72.561-78.23 116.04c-19.044 45.027-28.7 92.844-28.7 142.122 0 49.285 9.656 97.105 28.7 142.133 18.388 43.48 44.71 82.52 78.231 116.04C214.673 777.295 253.717 803.613 297.198 822c45.027 19.04 92.846 28.694 142.125 28.694 49.28 0 97.1-9.654 142.127-28.694 43.481-18.386 82.526-44.705 116.045-78.22 33.52-33.52 59.842-72.56 78.23-116.04 19.043-45.028 28.7-92.848 28.7-142.133 0-49.278-9.657-97.095-28.702-142.123-18.388-43.477-44.708-82.52-78.228-116.039S624.93 167.60799999999995 581.45 149.22000000000003c-45.028-19.043-92.847-28.698-142.128-28.698z m0 676.961c-171.975 0-311.888-139.906-311.888-311.875s139.913-311.874 311.888-311.874 311.888 139.908 311.888 311.874S611.3 797.483 439.323 797.483z m451.355-846.218c-22.122 0-42.904 8.562-58.541 24.116L674.673 128.02499999999998l37.039 38.206L869.6 13.172000000000025c5.607-5.606 13.092-8.693 21.078-8.693 7.983 0 15.465 3.088 21.07 8.691 5.617 5.622 8.717 13.127 8.717 21.123 0 7.981-3.092 15.463-8.703 21.068l-0.302 0.307-152.746 157.563 38.208 37.035L949.534 92.84000000000003c15.571-15.638 24.145-36.423 24.145-58.55 0-22.195-8.626-43.054-24.287-58.736-15.669-15.665-36.515-24.288-58.714-24.288zM281.015 327.245c-42.34 42.321-65.652 98.585-65.643 158.421 0.008 59.819 23.319 116.075 65.637 158.408l37.635-37.62c-66.607-66.629-66.61-175-0.007-241.577l-37.622-37.632z"  horiz-adv-x="1024" />

    
    <glyph glyph-name="shaixuan" unicode="&#59014;" d="M852.570629 746.472452c-7.446599 11.169387-18.614963 26.060539-33.507138 26.060539L96.795557 772.532991c-11.169387 0-26.061562-14.892175-29.78435-26.060539-7.445576-11.169387-3.722788-29.78435 3.722788-40.953737l253.165953-279.227516 0-309.010843c0-11.169387 7.446599-26.061562 22.337751-29.78435l189.874465-85.630263c3.723811-3.722788 11.169387-3.722788 14.893198-3.722788 7.445576 0 14.892175 0 18.61394 3.722788 11.169387 7.446599 18.615986 14.892175 18.615986 29.78435l11.169387 398.364917 245.720378 279.227516C856.293417 716.688101 856.293417 731.5813 852.570629 746.472452L852.570629 746.472452zM517.498224 83.773218l-119.137401 55.845912L398.360823 400.23066l130.306788 0L517.498224 83.773218 517.498224 83.773218zM547.281551 478.414323c-3.722788 0-3.722788-3.722788-7.445576-3.722788L379.74586 474.691535 178.702008 698.073138l562.178843 0L547.281551 478.414323 547.281551 478.414323zM956.815855 221.525582c0 14.892175-14.892175 29.78435-29.78435 29.78435L688.757726 251.309932c-14.892175 0-29.78435-14.893198-29.78435-29.78435l0-14.892175c0-14.893198 14.893198-29.78435 29.78435-29.78435l238.273778 0c14.893198 0 29.78435 14.892175 29.78435 29.78435L956.815855 221.525582 956.815855 221.525582zM956.815855 370.446309c0 14.893198-14.892175 29.78435-29.78435 29.78435L688.757726 400.23066c-14.892175 0-29.78435-14.892175-29.78435-29.78435l0-14.892175c0-14.892175 14.893198-29.78435 29.78435-29.78435l238.273778 0c14.893198 0 29.78435 14.893198 29.78435 29.78435L956.815855 370.446309 956.815855 370.446309zM956.815855 72.603831c0 14.892175-14.892175 29.783327-29.78435 29.783327L688.757726 102.387158c-14.892175 0-29.78435-14.892175-29.78435-29.783327l0-14.892175c0-14.892175 14.893198-29.78435 29.78435-29.78435l238.273778 0c14.893198 0 29.78435 14.892175 29.78435 29.78435L956.815855 72.603831 956.815855 72.603831z"  horiz-adv-x="1024" />

    
    <glyph glyph-name="beiliao" unicode="&#58936;" d="M698.026667 489.813333H146.773333c-18.773333 0-34.133333-15.36-34.133333-35.84 0-18.773333 15.36-35.84 34.133333-35.84h549.546667c18.773333 0 34.133333 15.36 34.133333 35.84 1.706667 18.773333-13.653333 35.84-32.426666 35.84zM698.026667 351.57333300000005H146.773333c-18.773333 0-34.133333-15.36-34.133333-35.84 0-18.773333 15.36-35.84 34.133333-35.84h549.546667c18.773333 0 34.133333 15.36 34.133333 35.84 1.706667 20.48-13.653333 35.84-32.426666 35.84zM698.026667 213.33333300000004H146.773333c-18.773333 0-34.133333-15.36-34.133333-35.84s15.36-35.84 34.133333-35.84h549.546667c18.773333 0 34.133333 15.36 34.133333 35.84S716.8 213.33333300000004 698.026667 213.33333300000004zM0-76.79999999999995a51.2 51.2 0 1 1 102.4 0 51.2 51.2 0 1 1-102.4 0ZM803.84-76.79999999999995a51.2 51.2 0 1 1 102.4 0 51.2 51.2 0 1 1-102.4 0ZM636.586667 556.373333h61.44c18.773333 0 34.133333 15.36 34.133333 35.84 0 18.773333-15.36 35.84-34.133333 35.84h-61.44c-18.773333 0-34.133333-15.36-34.133334-35.84 0-20.48 15.36-35.84 34.133334-35.84zM989.866667 896c-83.626667 0-151.893333-69.973333-151.893334-153.6v-559.786667c0-58.026667-46.08-105.813333-104.106666-105.813333H174.08c-58.026667 0-104.106667 47.786667-104.106667 105.813333V450.56c0 58.026667 46.08 105.813333 104.106667 105.813333h32.426667c18.773333 0 34.133333 15.36 34.133333 35.84 0 18.773333-15.36 35.84-34.133333 35.84h-32.426667C78.506667 628.0533330000001 0 549.5466670000001 0 452.266667v-269.653334c0-97.28 78.506667-175.786667 174.08-175.786666H733.866667c95.573333 0 174.08 78.506667 174.08 175.786666V742.4c0 46.08 37.546667 83.626667 81.92 83.626667 18.773333 0 34.133333 15.36 34.133333 35.84s-15.36 34.133333-34.133333 34.133333zM295.253333 559.7866670000001h254.293334c18.773333 0 34.133333 15.36 34.133333 35.84 0 18.773333-15.36 35.84-34.133333 35.84h-42.666667c-11.946667 34.133333-46.08 59.733333-85.333333 59.733333s-71.68-25.6-83.626667-61.44h-42.666667c-18.773333 0-34.133333-15.36-34.133333-35.84-1.706667-18.773333 13.653333-34.133333 34.133333-34.133333z"  horiz-adv-x="1024" />

    
    <glyph glyph-name="linshi" unicode="&#58889;" d="M585.728 462.336H880.64v-51.2h-294.912v51.2zM675.328 87.55200000000002l-2.56 2.56H93.696c-23.04 0-40.96 17.92-40.96 40.96V666.112c0 23.04 17.92 43.52 40.96 43.52h824.832c23.04 0 40.96-17.92 40.96-40.96v-321.024l2.56-2.56c12.8-7.68 25.6-17.92 35.84-30.72l10.24-12.8V678.912c0 43.52-35.84 78.848-79.36 78.848H80.896C37.376 757.76 1.536 721.92 1.536 678.912V117.75999999999999c0-43.52 35.84-78.848 79.36-78.848h627.712l-7.68 10.24c-10.24 12.8-17.92 25.6-25.6 38.4zM585.728 349.696h87.04v-51.2h-87.04v51.2zM585.728 571.904H880.64v-51.2h-294.912v51.2zM855.04 342.528c-94.72 0-168.96-73.728-168.96-168.448 0-91.648 76.8-168.448 168.96-168.448 94.72 0 168.96 73.728 168.96 168.448 0 94.208-76.8 168.448-168.96 168.448z m-2.56-270.336c-7.68-7.68-23.04-7.68-33.28 0L747.52 143.36c-7.68 7.68-7.68 23.04 0 30.72s23.04 7.68 33.28 0l56.32-56.32 110.08 107.008c7.68 7.68 23.04 7.68 33.28 0 7.68-7.68 7.68-23.04 0-30.72l-128-121.856zM186.88 529.9200000000001v-220.16h-37.888v220.16h37.888z m63.488 35.328v-290.816H195.072V565.248h55.296z m94.72 0l-8.192-36.352h97.28v-23.552h-102.4l-15.872-74.24H259.072l28.672 134.144h57.344z m88.576-259.072c0-15.872-13.312-29.184-29.184-29.184H261.12V415.744h172.544v-109.568z m-123.904-5.632h13.312V392.192h-13.312v-91.648z m87.552 193.536l19.456-62.464H360.96l-19.456 62.464h55.808z m-11.776-101.888h-13.312v-91.648h4.096c5.12 0 8.704 4.096 8.704 8.704V392.192z"  horiz-adv-x="1024" />

    
    <glyph glyph-name="dengji" unicode="&#58891;" d="M772.608 850.944c5.12-1.024 10.24-2.048 15.36-3.584 52.224-15.872 81.92-52.224 92.672-104.448 3.072-15.36 3.072-31.232 4.096-48.128-22.016-3.072-42.496-5.632-64-8.192v30.72c-0.512 15.872-5.12 29.696-15.36 41.984-12.8 15.872-29.696 23.552-50.688 23.552H245.76c-36.864 0-73.728 0-110.592-0.512-34.304 0-61.952-26.112-64.512-60.416 0-3.584-0.512-6.656-0.512-10.24v-643.072c0-8.704 1.024-17.92 3.584-26.112 8.704-28.16 32.256-44.544 61.952-44.544h339.456c92.672 0 184.832 0.512 277.504-0.512 42.496-0.512 67.584 34.816 67.584 67.072v182.784 9.728c20.48 2.56 40.96 5.632 62.464 8.192 0-2.56 0.512-5.12 0.512-7.168 0-63.488 0.512-126.976 0-190.976-0.512-47.616-17.92-87.04-56.832-115.712-15.36-11.264-32.256-17.92-51.2-20.992-1.024 0-2.048-1.024-3.072-1.536H119.296c-0.512 0.512-1.024 1.024-2.048 1.024-54.272 9.216-86.528 42.496-103.424 93.184-3.072 8.704-4.096 18.432-6.144 27.648V728.576c1.024 5.12 2.048 10.24 3.072 14.848 12.288 51.2 40.96 87.552 93.184 102.912 5.12 1.536 10.24 2.56 15.36 3.584 218.112 1.024 435.712 1.024 653.312 1.024zM1017.856 526.848c-5.12-7.168-9.728-15.36-15.36-22.016-12.288-13.824-25.088-27.648-37.888-41.472-38.4 41.984-75.776 82.944-114.176 124.416 15.872 17.408 31.232 34.304 47.104 50.688 9.728 10.24 26.112 9.728 35.84-0.512 26.112-28.16 52.224-56.32 77.824-84.992 3.072-3.072 4.608-7.68 6.656-11.776v-14.336zM824.32 561.152c38.912-42.496 77.312-83.968 115.712-125.952-15.36-16.896-30.72-33.792-46.08-50.176-73.216-79.872-146.432-159.744-219.648-239.104-2.048-2.56-6.144-4.608-9.216-4.608-35.84-0.512-71.68 0-108.032 0-1.024 0-2.56 0.512-4.096 0.512v49.664c0 22.528 0 45.568 0.512 68.096 0 3.072 1.536 7.168 3.584 9.728L821.248 558.0799999999999c1.024 0.512 1.536 1.536 3.072 3.072z m-169.984-243.2c-13.312-14.336-26.112-28.16-38.4-41.984-1.024-1.024-1.536-2.048-1.536-3.072-1.536-10.752-3.072-20.992-4.608-31.744h35.328c-1.024-12.8-1.536-25.6-2.56-38.912 11.264 1.024 21.504 1.536 31.744 2.56 1.024 0 2.56 1.024 3.072 1.536 13.312 14.336 26.624 28.672 39.424 43.52-20.992 23.04-41.472 45.056-62.464 68.096z m29.696 8.704c1.536 1.024 4.608 3.072 7.168 5.632 46.592 50.688 93.184 101.376 139.776 152.576 5.632 6.144 6.144 12.288 1.536 16.896-4.608 4.608-9.216 3.584-15.36-3.584-46.08-50.688-92.672-100.864-138.752-151.552-2.048-2.048-3.584-4.608-4.608-7.168-2.048-6.144 2.56-12.288 10.24-12.8zM452.096 577.5360000000001H181.248c-15.872 0-26.112 6.656-31.744 19.968-5.632 13.312-2.56 30.208 8.192 38.912 5.12 4.608 12.8 6.144 19.456 8.704 1.536 0.512 3.584 0 5.12 0 180.224 0 359.936-0.512 540.16 0.512 26.112 0 40.96-24.576 32.768-47.104-5.12-14.336-15.872-21.504-33.28-21.504-90.112 0.512-180.224 0.512-269.824 0.512zM378.88 441.856h197.12c14.336 0 24.576-5.632 30.72-17.92 6.656-13.312 5.12-26.112-3.584-37.888-5.12-7.168-12.8-11.264-21.504-11.776-2.048 0-4.608-0.512-6.656-0.512-130.56 0-261.632 0.512-392.192 0-27.648 0-40.96 25.088-33.792 46.592 4.608 13.824 15.872 22.016 31.232 22.016 66.048-0.512 132.096-0.512 198.656-0.512zM274.944 168.44799999999998H180.224c-19.968 0-33.28 13.824-33.792 33.792 0 19.968 13.312 34.816 32.768 34.816 63.488 0 126.976 0.512 190.464 0 19.968 0 33.28-15.36 32.768-35.328-0.512-19.456-14.336-32.768-33.792-32.768-30.72-0.512-61.952-0.512-93.696-0.512z"  horiz-adv-x="1024" />

    
    <glyph glyph-name="more" unicode="&#59208;" d="M96 384m-96 0a96 96 0 1 1 192 0 96 96 0 1 1-192 0ZM512 384m-96 0a96 96 0 1 1 192 0 96 96 0 1 1-192 0ZM928 384m-96 0a96 96 0 1 1 192 0 96 96 0 1 1-192 0Z"  horiz-adv-x="1024" />

    
    <glyph glyph-name="jiankongshuju" unicode="&#58907;" d="M1024.512 194.55999999999995c-2.56-5.12-5.632-10.24-7.68-15.872-19.968-53.248-64-86.016-120.832-86.528-256-0.512-511.488-0.512-767.488 0-56.832 0-100.864 33.28-120.832 86.528-2.048 5.632-5.12 10.24-7.68 15.872v496.64c21.504 66.048 64.512 104.96 136.704 104.96 250.368 0 500.736 0.512 751.104 0 68.608 0 107.52-29.696 132.096-95.744 1.024-3.072 3.072-6.144 4.608-9.216v-496.64z m-511.488 537.6h-371.2c-56.832 0-77.312-20.48-77.824-76.8-0.512-140.8-0.512-281.6 0-421.888 0-56.832 20.48-76.8 77.312-76.8h741.888c55.808 0 76.288 20.48 76.288 75.776 0.512 141.312 0.512 283.136 0 424.448 0 54.784-21.504 75.776-76.288 75.776-122.88-0.512-246.272-0.512-370.176-0.512zM193.536-97.79200000000003v60.928h190.464v62.976h255.488v-60.928h191.488v-62.976h-637.44zM574.464 220.67200000000003h-123.904v381.952h123.904v-381.952zM830.976 474.624v-252.416h-124.416v252.416h124.416zM318.464 220.67200000000003H195.072v189.44h123.392v-189.44z"  horiz-adv-x="1024" />

    
    <glyph glyph-name="kanban" unicode="&#58911;" d="M204.8-128H102.4v179.2h102.4V-128z m236.8 0h-102.4v300.8h102.4V-128z m236.8 0H576V323.20000000000005h102.4V-128z m240 0h-102.4V473.6h102.4V-128z m-96 883.2c-3.2-3.2-3.2-3.2-3.2-6.4 0 0 0-3.2-3.2-3.2-3.2-6.4-9.6-12.8-16-22.4-6.4-9.6-16-22.4-28.8-35.2-9.6-12.8-22.4-25.6-38.4-41.6-12.8-16-28.8-32-48-48l-25.6-25.6-12.8-12.8c-3.2-3.2-9.6-9.6-16-12.8-9.6-9.6-19.2-16-28.8-25.6-6.4-3.2-9.6-9.6-16-12.8-6.4-3.2-9.6-9.6-16-12.8-3.2-3.2-6.4-3.2-9.6-6.4-3.2-3.2-6.4-3.2-9.6-6.4-6.4-3.2-9.6-6.4-16-12.8-3.2-3.2-6.4-3.2-9.6-6.4l-9.6-6.4c-6.4-3.2-12.8-6.4-16-12.8-6.4-3.2-12.8-6.4-16-9.6-6.4-3.2-12.8-6.4-16-9.6-6.4-3.2-12.8-6.4-16-9.6-3.2 3.2-6.4 0-9.6 0-3.2-3.2-6.4-3.2-9.6-6.4-12.8-6.4-22.4-12.8-35.2-19.2-12.8-6.4-22.4-12.8-35.2-16-12.8-6.4-22.4-9.6-35.2-16-3.2-3.2-9.6-6.4-16-6.4-3.2 0-6.4-3.2-9.6-3.2-3.2 0-6.4-3.2-9.6-3.2-9.6-3.2-22.4-9.6-32-12.8l-28.8-9.6c0-3.2-3.2-3.2-6.4-3.2s-3.2 0-6.4-3.2c-3.2 0-9.6-3.2-12.8-3.2-3.2 0-9.6-3.2-12.8-3.2-3.2 0-3.2 0-6.4-3.2h-6.4c-9.6-3.2-16-3.2-22.4-6.4-6.4-3.2-12.8-3.2-19.2-3.2-22.4-6.4-38.4-9.6-38.4-9.6s12.8 3.2 35.2 9.6c6.4 0 12.8 3.2 19.2 6.4 6.4 3.2 12.8 3.2 22.4 6.4 3.2 0 3.2 0 6.4 3.2 3.2 0 3.2 0 6.4 3.2 3.2 0 9.6 3.2 12.8 3.2 3.2 0 9.6 3.2 12.8 3.2 3.2 0 3.2 0 6.4 3.2 3.2 0 3.2 3.2 6.4 3.2 9.6 3.2 19.2 6.4 28.8 12.8 9.6 3.2 19.2 9.6 32 12.8 3.2 0 6.4 3.2 9.6 3.2 3.2 0 6.4 3.2 9.6 3.2 6.4 3.2 9.6 6.4 16 6.4 9.6 6.4 22.4 9.6 32 16 12.8 6.4 22.4 12.8 35.2 19.2 12.8 6.4 22.4 12.8 35.2 19.2 3.2 3.2 6.4 3.2 9.6 6.4 3.2 3.2 6.4 3.2 9.6 6.4 6.4 3.2 12.8 6.4 16 9.6 6.4 3.2 9.6 6.4 16 12.8 6.4 3.2 9.6 6.4 16 12.8 6.4 3.2 9.6 9.6 16 12.8l9.6 6.4c3.2 3.2 6.4 3.2 9.6 6.4 6.4 3.2 9.6 9.6 16 12.8 3.2 3.2 6.4 3.2 6.4 6.4 3.2 3.2 6.4 3.2 6.4 6.4 6.4 3.2 9.6 9.6 16 12.8 6.4 3.2 9.6 9.6 16 12.8 9.6 9.6 19.2 16 28.8 25.6l12.8 12.8 12.8 12.8 25.6 25.6c16 16 32 32 44.8 48 12.8 16 25.6 28.8 35.2 41.6 9.6 12.8 19.2 25.6 25.6 35.2 6.4 9.6 12.8 16 16 22.4 0 0 0 3.2 3.2 3.2v3.2 3.2l28.8-25.6z m16-179.2l-51.2 163.2-172.8-16 137.6 86.4L889.6 896 864 736l-25.6-160z"  horiz-adv-x="1024" />

    
    <glyph glyph-name="shezhi" unicode="&#59004;" d="M595.84-64H428.32A52.48 52.48 0 0 0 376-18.56l-13.2 92.16a340.16 340.16 0 0 0-46.08 26.64l-88.96-35.44a53.28 53.28 0 0 0-64.48 24L80 232a52.96 52.96 0 0 0 12.96 67.92l74.4 57.76c-0.8 9.52-1.2 18.16-1.2 26.4s0 16.96 1.2 26.4l-74.24 57.68A52.64 52.64 0 0 0 80 536l83.68 144a52.56 52.56 0 0 0 64.8 22.88l88-35.2a351.28 351.28 0 0 0 46 26.64l13.52 92.8A52.32 52.32 0 0 0 428.32 832h167.52A52.48 52.48 0 0 0 648 786.56l13.44-92.16a339.68 339.68 0 0 0 46.08-26.64l88.88 35.44a53.2 53.2 0 0 0 64.48-24L944 536a52.96 52.96 0 0 0-12.96-67.92l-74.4-57.76c0.72-8 1.2-17.04 1.2-26.48s-0.48-18.32-1.2-26.48l74.24-57.68a52.8 52.8 0 0 0 13.44-67.28L860.48 88a52.56 52.56 0 0 0-64.8-22.88l-88 35.2a351.04 351.04 0 0 0-46-26.64L648-19.12A52.32 52.32 0 0 0 595.84-64z m-11.2 53.92z m-145.2 0.48z m-1.36 9.6h148.08l17.04 118.4 16.96 6.88a288 288 0 0 1 64 36.8l14.32 10.72 112-44.56 74 127.2-94.8 73.6 2.24 18.08a253.76 253.76 0 0 1 0 73.6l-2.24 18.08 94.8 73.6L809.92 640l-112-44.64-14.4 11.04a272.64 272.64 0 0 1-63.44 36.56l-16.88 6.64L586.16 768H438.08l-17.12-118.4-16.96-6.88a288.56 288.56 0 0 1-64-36.8l-14.08-10.72L214.24 640l-74-127.2 94.8-73.6-2.24-18.08a293.04 293.04 0 0 1-2.72-36.8 293.04 293.04 0 0 1 2.72-36.8l2.24-18.08-94.8-73.6 74-127.84 112 44.64 14.4-11.04a272.8 272.8 0 0 1 63.44-36.56l16.96-6.88z m367.04 120v-0.48z m-586.32 0.56zM135.36 504zM805.2 648z m-585.84 0.64v-0.48zM584.72 778z m-145.12 0.56zM512 206.4A177.6 177.6 0 1 0 690.64 384 178.32 178.32 0 0 0 512 206.4z m0 291.2A113.6 113.6 0 1 1 626.64 384 114.24 114.24 0 0 1 512 497.6z"  horiz-adv-x="1024" />

    
    <glyph glyph-name="chuku" unicode="&#58913;" d="M271.058824 85.83529399999998h481.882352v60.235294h-481.882352zM180.705882 838.776471c-66.258824 0-120.470588-54.211765-120.470588-120.470589v-662.588235c0-66.258824 54.211765-120.470588 120.470588-120.470588h662.588236c66.258824 0 120.470588 54.211765 120.470588 120.470588v662.588235c0 66.258824-54.211765 120.470588-120.470588 120.470589h-90.352942v-60.235295h90.352942c36.141176 0 60.235294-24.094118 60.235294-60.235294v-662.588235c0-30.117647-24.094118-60.235294-60.235294-60.235294h-662.588236c-30.117647 0-60.235294 24.094118-60.235294 60.235294v662.588235c0 30.117647 24.094118 60.235294 60.235294 60.235294h102.4v60.235295h-102.4zM548.141176 597.835294v-373.458823h-60.235294v373.458823l-102.4-108.423529-42.164706 42.164706 174.682353 180.705882 180.705883-180.705882-42.164706-42.164706-108.42353 108.423529z"  horiz-adv-x="1024" />

    
    <glyph glyph-name="ruku" unicode="&#58916;" d="M271.058824 85.83529399999998h481.882352v60.235294h-481.882352zM180.705882 838.776471c-66.258824 0-120.470588-54.211765-120.470588-120.470589v-662.588235c0-66.258824 54.211765-120.470588 120.470588-120.470588h662.588236c66.258824 0 120.470588 54.211765 120.470588 120.470588v662.588235c0 66.258824-54.211765 120.470588-120.470588 120.470589h-90.352942v-60.235295h90.352942c36.141176 0 60.235294-24.094118 60.235294-60.235294v-662.588235c0-30.117647-24.094118-60.235294-60.235294-60.235294h-662.588236c-30.117647 0-60.235294 24.094118-60.235294 60.235294v662.588235c0 30.117647 24.094118 60.235294 60.235294 60.235294h102.4v60.235295h-102.4zM481.882353 344.84705899999994v373.458823h60.235294v-373.458823l102.4 108.423529 42.164706-42.164706-174.682353-180.705882-180.705882 180.705882 42.164706 42.164706 108.423529-108.423529z"  horiz-adv-x="1024" />

    
    <glyph glyph-name="true" unicode="&#58888;" d="M511.978005 896C229.184761 896 0 666.770249 0 383.980004c0-282.756252 229.184761-511.979005 511.978005-511.979004 282.796243 0 511.982004 229.222753 511.982004 511.979004C1023.960009 666.770249 794.774248 896 511.978005 896z m303.372822-318.951475L468.700303 115.84661100000005c-10.829673-14.368913-27.328129-23.41197-45.278273-24.745683a60.438015 60.438015 0 0 0-4.667997-0.165965c-16.328492 0-32.075109 6.372631-43.780594 17.916151l-192.898557 189.4423c-24.619711 24.2038-24.99463 63.730308-0.796828 88.352018 24.2058 24.654703 63.736307 24.95064 88.355017 0.83482l142.041483-139.505028 303.788733 404.220156c20.741544 27.574076 59.897131 33.114885 87.515198 12.413333 27.533085-20.829525 33.113886-59.987112 12.372342-87.560188z m0 0"  horiz-adv-x="1024" />

    
    <glyph glyph-name="renwu" unicode="&#58886;" d="M133.717333 765.312l119.850667 47.552-73.194667 45.568a57.664 57.664 0 0 1-66.901333-4.245333L51.434667 803.669333a57.578667 57.578667 0 0 1-17.365334-65.6l32.021334-82.56 67.626666 109.802667zM911.552 720.725333L858.453333 786.752a57.813333 57.813333 0 0 1-66.581333 17.429333l-78.506667-31.637333 109.781334-67.584 47.466666-119.957333 44.245334 68.181333a57.749333 57.749333 0 0 1-3.306667 67.541333zM614.165333 686.528c171.925333-95.253333 235.882667-315.861333 148.842667-485.461333 0.661333-0.362667 60.373333-30.762667 60.373333-30.762667 105.088 207.381333 23.04 461.909333-184 568.490667C431.530667 845.824 175.36 763.797333 68.330667 555.9466669999999-17.685333 388.864 18.389333 190.613333 143.808 63.63733300000001c30.634667-30.997333 89.066667 11.029333 28.928 65.002667-107.882667 96.853333-117.354667 276.565333-51.882667 403.754667C203.136 692.16 454.272 775.146667 614.165333 686.528zM562.048 352.021333l-172.501333-6.229333-6.229334 172.522667 66.88 2.410666 3.904-116.565333 105.344 4.181333 2.602667-56.32zM949.162667 140.79999999999995c-2.410667 1.514667-3.456 2.261333-4.629334 2.944-69.504 36.949333-139.008 73.962667-208.618666 110.762667a25.045333 25.045333 0 0 1-11.456 2.346666c-107.008 0.106667-213.952 0.149333-320.896-0.064a28.885333 28.885333 0 0 1-12.928-3.328c-26.410667-13.674667-52.672-27.690667-78.976-41.6l-131.050667-69.717333 0.170667-1.344h768.384z m-361.664 55.552h121.749333v25.664l61.546667-35.754667-61.034667-35.306666v26.090666h-122.24v19.306667z m-153.258667 51.712l1.173333-24.768h13.674667l95.082667 0.064c13.632 0 13.632 0 13.333333-13.738667-0.042667-1.749333-0.213333-3.477333-0.426667-6.229333H435.413333l-1.301333-25.984-60.117333 35.584 60.245333 35.072z m506.133333-141.162667H183.04c-26.048 0-50.624-18.005333-50.624-44.032v-98.666666c0-26.048 24.576-46.698667 50.624-46.698667h44.096v-15.786667h63.125333v15.786667h536.704v-15.786667h78.954667v15.786667h34.410667c26.048 0 44.501333 20.672 44.501333 46.698667v98.666666c0.042667 26.026667-18.410667 44.032-44.458667 44.032z m-679.168-152.725333H185.6V-2.7733329999999796h75.605333v-43.050667z m0 70.890667H185.6v43.029333h75.605333v-43.029333z m96.469334-70.890667h-44.693334V-1.0666670000000522h44.693334v-44.757333z m0 69.205333h-44.693334v44.714667h44.693334v-44.714667z m82.88-69.205333h-44.736V-1.0666670000000522h44.736v-44.757333z m0 69.205333h-44.736v44.714667h44.736v-44.714667z m82.901333-69.205333H478.72V-1.0666670000000522h44.736v-44.757333z m0 69.205333H478.72v44.714667h44.736v-44.714667z m82.88-69.205333h-44.757333V-1.0666670000000522h44.757333v-44.757333z m0 69.205333h-44.757333v44.714667h44.757333v-44.714667z m82.88-69.205333h-44.757333V-1.0666670000000522h44.757333v-44.757333z m0 69.205333h-44.757333v44.714667h44.757333v-44.714667z m82.858667-69.205333h-44.714667V-1.0666670000000522h44.714667v-44.757333z m0 69.205333h-44.714667v44.714667h44.714667v-44.714667z m82.88-69.205333h-44.757334V-1.0666670000000522h44.757334v-44.757333z m0 69.205333h-44.757334v44.714667h44.757334v-44.714667z m82.88-69.205333h-44.714667V-1.0666670000000522h44.672v-44.757333h0.042667z m0 69.205333h-44.714667v44.714667h44.672v-44.714667h0.042667z"  horiz-adv-x="1024" />

    
    <glyph glyph-name="chukudengji" unicode="&#58915;" d="M329.386667 370.346667h204.8c13.653333 0 25.6 5.12 25.6 13.653333v8.533333c0 6.826667-11.946667 11.946667-25.6 11.946667h-204.8c-13.653333 0-25.6-5.12-25.6-11.946667v-8.533333c0-8.533333 11.946667-13.653333 25.6-13.653333z m0 119.466666h290.133333c13.653333 0 25.6 5.12 25.6 13.653334v8.533333c0 6.826667-11.946667 13.653333-25.6 13.653333h-290.133333c-13.653333 0-25.6-5.12-25.6-13.653333v-8.533333c0-8.533333 11.946667-13.653333 25.6-13.653334z m418.133333-443.733333h-546.133333v631.466667h51.2v68.266666h-34.133334c-47.786667 0-85.333333-37.546667-85.333333-85.333333v-597.333333c0-47.786667 37.546667-85.333333 85.333333-85.333334h512c47.786667 0 85.333333 20.48 85.333334 68.266667v155.306667h-68.266667v-155.306667z m-17.066667 699.733333h-34.133333v-68.266666h51.2v-85.333334h68.266667v68.266667c0 47.786667-37.546667 85.333333-85.333334 85.333333z m-353.28-85.333333h194.56c30.72 0 56.32 20.48 56.32 44.373333v13.653334c0 23.893333-25.6 44.373333-56.32 44.373333H377.173333c-30.72 0-56.32-20.48-56.32-44.373333v-13.653334c0-23.893333 25.6-44.373333 56.32-44.373333z m-47.786666-409.6h153.6c13.653333 0 25.6 5.12 25.6 13.653333v8.533334c0 6.826667-11.946667 13.653333-25.6 13.653333h-153.6c-13.653333 0-25.6-5.12-25.6-13.653333v-8.533334c0-8.533333 11.946667-13.653333 25.6-13.653333zM551.253333 172.373333c-6.826667 0-11.946667 3.413333-11.946666 10.24-8.533333 76.8 6.826667 139.946667 44.373333 187.733334 25.6 30.72 59.733333 54.613333 102.4 69.973333 27.306667 10.24 49.493333 13.653333 63.146667 15.36l-8.533334 95.573333c0 3.413333 1.706667 8.533333 5.12 10.24 3.413333 1.706667 8.533333 1.706667 11.946667 0l191.146667-148.48c3.413333-1.706667 5.12-5.12 5.12-8.533333s-1.706667-6.826667-3.413334-8.533333l-160.426666-158.72c-3.413333-3.413333-6.826667-3.413333-11.946667-1.706667-3.413333 1.706667-6.826667 5.12-6.826667 8.533333l-8.533333 88.746667c-75.093333-10.24-133.12-37.546667-168.96-83.626667-27.306667-35.84-30.72-68.266667-32.426667-69.973333 0-1.706667-5.12-6.826667-10.24-6.826667z m220.16 186.026667c6.826667 0 11.946667-3.413333 11.946667-10.24l8.533333-78.506667 133.12 133.12-158.72 129.706667 8.533334-83.626667c0-3.413333 0-5.12-3.413334-8.533333s-5.12-5.12-8.533333-5.12h-3.413333c-17.066667-1.706667-104.106667-13.653333-158.72-80.213333-25.6-30.72-39.253333-68.266667-40.96-114.346667 3.413333 6.826667 8.533333 15.36 15.36 22.186667 18.773333 23.893333 40.96 42.666667 69.973333 58.026666 34.133333 20.48 76.8 32.426667 126.293333 37.546667z"  horiz-adv-x="1024" />

    
    <glyph glyph-name="car" unicode="&#58892;" d="M1025.1807 322.10787600000003A75.763499 75.763499 0 0 1 937.643144 384.049656c-7.166817 0-19.964706 13.309804-23.548115 23.036199q-34.298341 86.513725-65.525188 174.563197a107.502262 107.502262 0 0 1-75.763499 71.156259c-51.191553 13.309804-102.383107 21.500452-150.503167 31.738763A735.110707 735.110707 0 0 1 508.146011 691.198976a252.886274 252.886274 0 0 1-69.108597 130.026546A248.279034 248.279034 0 0 1 257.307399 895.96519a261.076922 261.076922 0 0 1-181.730015-74.739668A260.053091 260.053091 0 0 1 1.349632 640.007423a255.957767 255.957767 0 0 1 74.227752-181.218099 240.600301 240.600301 0 0 1 43.512821-34.810257l-7.678733-20.476621c-3.583409-8.702564-15.357466-22.012368-21.500453-21.500452C37.183719 388.656896 16.707098 356.918133 1.349632 315.96488999999997a58.870286 58.870286 0 0 1 0-25.083861l54.774962-14.333635c0-74.739668 0-148.96742-3.071493-223.195173v-119.788235a91.632881 91.632881 0 0 1 18.428959-54.263047 486.319757 486.319757 0 0 1 167.908295 0c11.774057 4.60724 17.405128 62.453695 26.619608 97.263952h498.093815c12.285973-32.762594-11.262142-73.203921 26.619607-97.263952a479.15294 479.15294 0 0 1 163.812971 3.071494 80.882654 80.882654 0 0 1 17.405128 47.096229v283.601205a516.010858 516.010858 0 0 1-7.166817 61.94178l60.406033 15.869382a66.037104 66.037104 0 0 1 0 31.226847zM52.541185 640.007423a208.349622 208.349622 0 0 0 59.382202 144.872096A209.373453 209.373453 0 0 0 257.307399 844.773636a196.575565 196.575565 0 0 0 145.384012-59.894117A199.647058 199.647058 0 0 0 455.930626 691.198976c0-5.631071 0-11.262142 3.071493-17.405128A208.861538 208.861538 0 0 0 462.073613 640.007423a204.766214 204.766214 0 0 0-3.583409-38.393665 209.885369 209.885369 0 0 0-55.798793-106.478431A209.373453 209.373453 0 0 0 257.307399 435.241209a215.51644 215.51644 0 0 0-51.191553 7.166818 204.766214 204.766214 0 0 0-34.298341 11.774057 182.24193 182.24193 0 0 0-30.714932 17.405128 197.599396 197.599396 0 0 0-26.619608 22.524284A204.766214 204.766214 0 0 0 52.541185 640.007423z m222.683258-511.915534a249.814781 249.814781 0 0 0-54.774962-4.60724c-26.619608 2.559578-51.191553 3.583409-79.858824 8.702564-33.786425 7.166817-43.51282 31.738763-33.274509 76.275415 7.166817 30.203017 31.226848 31.738763 51.191553 24.571945a1195.834687 1195.834687 0 0 0 127.978883-51.191553c10.238311-4.60724 22.012368-24.06003 19.452791-31.226848a51.191553 51.191553 0 0 0-30.714932-22.524283z m-98.287783 238.552639l10.238311 27.643438A264.148416 264.148416 0 0 1 257.307399 384.049656a261.076922 261.076922 0 0 1 181.730015 74.739668 261.588838 261.588838 0 0 1 70.132428 140.776772c67.060935 0 133.609954-3.583409 200.670889-6.142987a84.977979 84.977979 0 0 0 84.977979-68.084766c14.333635-51.191553 33.27451-102.383107 51.191553-158.693815a1617.141172 1617.141172 0 0 0-669.073603 0z m716.681748-231.385822a731.015382 731.015382 0 0 0-80.370739-10.23831 576.416891 576.416891 0 0 0-69.108597 6.142986c-25.595777 5.631071-33.786425 35.322172-11.262142 46.072398a1109.320962 1109.320962 0 0 0 153.57466 58.358371c20.988537 6.654902 35.322172-10.750226 36.346003-33.786425s6.654902-57.846455-31.738763-66.54902zM359.690506 588.815869V640.007423H257.307399V742.39053H206.115846v-153.574661h153.57466z"  horiz-adv-x="1027" />

    
    <glyph glyph-name="caigou" unicode="&#58968;" d="M317.44 219.64800000000002h333.824c5.12 0 19.456 9.216 19.456 19.968 0 10.752-14.336 19.456-19.456 19.456H317.44c-5.12 0-19.968-8.704-19.968-19.456 0-10.752 14.848-19.968 19.968-19.968z m0 137.216h333.824c5.12 0 19.456 9.216 19.456 19.968 0 10.752-14.336 18.944-19.456 18.944H317.44c-5.12 0-19.968-8.192-19.968-18.944s14.848-19.968 19.968-19.968z m0 137.216h333.824c5.12 0 19.456 9.216 19.456 19.968 0 10.752-14.336 19.456-19.456 19.456H317.44c-5.12 0-19.968-8.192-19.968-19.456 0-10.752 14.848-19.968 19.968-19.968z m503.296 314.368H199.68 202.752c-45.056-1.024-81.408-31.232-81.408-78.336v-670.72c0-6.144 2.56-12.288 6.656-16.896L235.52-25.600000000000023c8.704-8.704 22.528-8.704 31.232 0l89.088 69.632 111.104-72.192c8.704-8.704 22.528-8.704 31.232 0l91.648 72.192 91.648-72.192c4.608-4.608 29.696-6.656 35.328-6.656 5.632 0 11.264 2.048 15.872 6.656l104.448 65.536c4.608 4.608 10.752 19.968 10.752 26.112V651.264c36.352 10.24 58.88 30.72 58.88 70.144v8.192c-0.512 47.616-38.912 78.848-86.016 78.848z m-12.8-745.472l-98.304-58.88-102.4 83.456c-8.704 8.704-23.04 8.704-31.744 0l-93.184-73.728-113.152 73.728c-8.704 8.704-23.04 8.704-31.744 0l-90.624-71.168-86.016 46.592V729.6c0 22.528 17.92 38.912 39.424 38.912h1.024c23.04 0 37.376-16.384 37.376-38.912 0-22.528-16.384-39.424-39.424-39.424-12.8 0-19.456-6.144-19.456-19.456 0-13.312 6.656-19.456 19.456-19.456h608.256v-588.288h0.512z m19.968 627.712H258.56c22.016 10.752 19.456 32.768 19.456 39.424 0 24.576-5.12 29.696-19.456 39.424h569.344c22.528 0 39.424-16.896 39.424-39.424-0.512-22.528-16.896-39.424-39.424-39.424z"  horiz-adv-x="1024" />

    
    <glyph glyph-name="gongyingshang" unicode="&#58969;" d="M901.12 735.744v1.024 2.048c0 0.512 0 1.024-0.512 1.536v0.512c0 0.512-0.512 1.024-0.512 1.536 0 0.512 0 0.512-0.512 1.024 0 0.512-0.512 1.024-0.512 1.024 0 0.512-0.512 1.024-0.512 1.536 0 0.512 0 0.512-0.512 0.512-0.512 0.512-0.512 1.024-1.024 1.536 0 0 0 0.512-0.512 0.512-0.512 0.512-0.512 1.024-1.024 1.536l-0.512 0.512c-0.512 0.512-0.512 1.024-1.024 1.024l-0.512 0.512-1.024 1.024-0.512 0.512c-0.512 0.512-1.024 0.512-1.536 1.024l-0.512 0.512c-0.512 0.512-1.024 0.512-1.536 1.024h-0.512c-0.512 0-1.024 0.512-1.536 0.512 0 0-0.512 0-0.512 0.512-0.512 0-1.024 0.512-1.536 0.512h-0.512c-0.512 0-1.024 0.512-1.536 0.512h-2.048H302.592c-5.632 0-11.264-2.048-15.36-5.632l-138.24-115.712c-0.512-0.512-1.024-0.512-1.024-1.024l-0.512-0.512c-0.512-0.512-1.024-1.024-1.024-1.536l-0.512-0.512v-0.512l-0.512-0.512-0.512-0.512c-0.512-0.512-0.512-1.024-1.024-2.048v-0.512c-0.512-0.512-0.512-1.024-0.512-1.536v-0.512c0-0.512-0.512-1.024-0.512-1.536v-0.512c0-0.512 0-1.024-0.512-1.024V12.799999999999955c0-13.312 10.752-23.552 23.552-23.552h605.184c0.512 0 1.024 0 1.536 0.512 0.512 0 0.512 0 1.024 0.512 0.512 0 0.512 0 1.024 0.512 0.512 0 1.024 0.512 1.536 0.512l1.024 0.512c0.512 0 1.024 0.512 1.536 0.512l0.512 0.512c0.512 0 1.024 0.512 1.536 1.024 0 0 0.512 0 0.512 0.512 1.536 1.024 3.072 2.56 4.096 3.584l0.512 0.512 0.512 0.512 111.104 143.872c3.072 4.096 5.12 9.216 5.12 14.336l-1.536 578.56zM821.76 711.6800000000001l-66.048-69.12h-225.792L595.968 711.6800000000001h225.792zM229.376 642.56l81.92 69.12h219.136L464.896 642.56h-235.52zM742.4 594.944v-558.08H188.416v558.08H742.4zM853.504 675.84v-510.976l-63.488-82.432V609.28l63.488 66.56zM272.384 312.832c4.096 0 8.192 1.024 12.8 2.56l3.072 1.024 2.048 2.56 6.144 7.68v-179.712l1.536-2.56c5.632-11.264 12.8-16.896 21.504-16.896 8.704 0 15.872 5.632 21.504 16.896l1.536 2.56v125.952c1.024-0.512 2.048-1.024 3.072-2.048l3.072-2.048h91.136l-1.536-2.56c-20.48-32.768-47.616-61.952-80.896-87.04l-2.56-2.048-1.536-3.072c-3.584-7.68-7.168-19.456-1.024-29.184 2.048-3.072 7.68-8.704 18.432-8.704 2.048 0 4.096 0 6.656 0.512l3.072 0.512 2.56 1.536c39.936 29.184 71.68 64 94.208 104.448l1.536 3.072v3.584c0 9.216-2.56 15.36-5.632 19.456h57.344l-2.048-2.048c-4.608-5.632-6.144-12.8-4.608-22.528l0.512-4.096 2.56-3.072c27.648-29.696 54.272-61.952 79.872-95.744l1.536-2.048 2.048-1.536c5.632-3.584 10.752-5.12 15.872-5.12 3.584 0 19.968 1.024 19.968 26.112v4.608l-2.048 3.584c-24.064 34.816-51.2 68.608-81.92 101.376l-0.512 0.512H650.24l3.072 2.048c9.728 5.632 14.336 12.8 14.336 20.992 0 8.192-4.608 15.36-14.336 20.992l-3.072 2.048h-61.44V404.992h48.64l3.072 2.048c9.728 5.632 14.336 12.8 14.336 20.992 0 8.192-4.608 14.848-14.336 20.992l-3.072 2.048H588.8V521.7280000000001l-2.048 3.072c-5.632 9.728-12.8 14.336-20.992 14.336-8.192 0-14.848-4.608-20.992-14.336l-2.048-3.072V450.56H457.728V521.7280000000001l-2.048 3.072c-5.632 9.728-12.8 14.336-20.992 14.336-8.192 0-14.848-4.608-20.992-14.336l-2.048-3.072V450.56h-45.568l-2.56-2.048c-6.656-4.096-11.264-8.704-13.312-14.336 9.728 29.696 16.384 58.368 19.968 85.504l0.512 4.608-2.048 3.584c-5.632 9.728-12.8 14.336-20.992 14.336-8.192 0-15.36-4.608-20.992-14.336l-1.536-2.56-0.512-3.072c-6.144-55.808-30.208-115.712-72.192-178.176l-2.048-3.072v-4.096c0.512-17.92 11.776-24.064 22.016-24.064z m185.344 2.048V404.992h83.456v-90.112H457.728zM363.52 406.528l3.072-2.048h45.568v-90.112H347.648l-3.072-2.048c-1.024-0.512-2.048-1.024-3.072-2.048V409.088c3.072 8.192 6.144 15.872 8.704 24.064-0.512-1.536-1.024-3.584-1.024-5.632 0-8.192 5.12-14.848 14.336-20.992z"  horiz-adv-x="1024" />

    
    <glyph glyph-name="fenlei" unicode="&#58970;" d="M62.464 100.86400000000003c0-15.36 6.656-31.232 17.408-41.984 11.264-11.264 26.624-17.408 41.984-17.408 15.36 0 31.232 6.656 41.984 17.408 11.264 11.264 17.408 26.624 17.408 41.984 0 15.36-6.656 31.232-17.408 41.984-11.264 11.264-26.624 17.408-41.984 17.408-15.36 0-31.232-6.656-41.984-17.408-11.264-10.752-17.408-26.624-17.408-41.984zM62.464 370.17600000000004c0-15.36 6.656-31.232 17.408-41.984 11.264-11.264 26.624-17.408 41.984-17.408 15.36 0 31.232 6.656 41.984 17.408 11.264 11.264 17.408 26.624 17.408 41.984 0 15.36-6.656 31.232-17.408 41.984-11.264 11.264-26.624 17.408-41.984 17.408-15.36 0-31.232-6.656-41.984-17.408-11.264-10.752-17.408-26.112-17.408-41.984zM62.464 648.704c0-15.36 6.656-31.232 17.408-41.984 11.264-11.264 26.624-17.408 41.984-17.408 15.36 0 31.232 6.656 41.984 17.408 11.264 11.264 17.408 26.624 17.408 41.984 0 15.36-6.656 31.232-17.408 41.984-11.264 11.264-26.624 17.408-41.984 17.408-15.36 0-31.232-6.656-41.984-17.408-11.264-11.264-17.408-26.624-17.408-41.984zM977.92 648.704c0-12.8-10.24-23.04-23.04-23.04h-701.44c-12.8 0-23.04 10.24-23.04 23.04s10.24 23.04 23.04 23.04h700.928c13.312 0 23.552-10.752 23.552-23.04zM750.592 370.17600000000004c0-12.8-10.24-23.04-23.04-23.04H253.44c-12.8 0-23.04 10.24-23.04 23.04s10.24 23.04 23.04 23.04h474.112c12.8 0 23.04-10.24 23.04-23.04zM627.2 100.86400000000003c0-12.8-10.24-23.04-23.04-23.04H253.44c-12.8 0-23.04 10.24-23.04 23.04s10.24 23.04 23.04 23.04H604.16c12.8 0 23.04-10.24 23.04-23.04z"  horiz-adv-x="1024" />

    
    <glyph glyph-name="tihuo" unicode="&#58971;" d="M157.184 550.912l343.04-198.144v-373.76l-343.04 212.992V550.912z m-29.696 51.2v-427.008l402.432-249.344v444.416L127.488 602.1120000000001M881.664 557.568v-386.048l-322.048-193.536v375.808l322.048 203.776z m29.184 53.76l-380.928-241.152v-444.416l380.928 229.376V611.328M510.464 795.136L852.992 609.28l-323.584-204.8-343.04 198.144 324.096 192.512z m-1.024 34.304L127.488 602.1120000000001l402.432-232.448 380.928 241.152L509.44 829.44M296.96 178.688c-8.192 0-14.848 6.656-14.848 14.848v145.92c0 8.192 6.656 14.848 14.848 14.848 8.192 0 14.848-6.656 14.848-14.848v-145.92c0-8.192-6.656-14.848-14.848-14.848zM317.44 121.34400000000005c-2.56 0-5.632 1.024-8.192 2.56L194.56 197.63199999999995a15.36 15.36 0 0 0-4.608 20.48c4.608 6.656 13.824 8.704 20.48 4.608L325.632 148.48000000000002a15.36 15.36 0 0 0 4.608-20.48c-3.072-4.096-7.68-6.656-12.8-6.656zM304.64 694.2719999999999l352.768-210.432v-203.264l90.624 46.08-3.584 188.416-364.032 225.792-75.776-46.592z"  horiz-adv-x="1024" />

    
    <glyph glyph-name="tongzhi" unicode="&#58972;" d="M541.696 753.152c-10.24 5.12-23.04 3.584-31.744-3.584-0.512-0.512-44.544-35.328-93.184-71.168C331.776 615.9359999999999 307.2 605.184 302.08 603.648H169.984c-24.576 0-46.592-10.24-61.44-29.184-12.8-15.872-19.456-37.376-19.456-60.928v-264.704c0-49.664 40.448-90.112 89.6-90.112h37.376c16.384 0 30.208 13.312 30.208 30.208 0 16.384-13.312 30.208-30.208 30.208h-37.376c-16.384 0-29.696 13.312-29.696 29.696V513.5360000000001c0 11.264 2.56 29.696 20.48 29.696h134.656c15.36 0 38.912 6.144 142.336 81.92 18.432 13.312 36.352 27.136 51.712 38.912V102.39999999999998c-12.8 10.752-26.624 22.016-40.96 33.792-94.208 76.288-117.76 82.944-133.632 82.944-16.384 0-30.208-13.312-30.208-30.208 0-15.872 12.288-28.672 27.648-30.208 4.608-1.536 27.136-11.776 103.936-74.24 43.52-35.84 82.944-70.656 83.456-70.656 5.632-5.12 12.8-7.68 19.968-7.68 4.096 0 8.192 1.024 12.288 2.56 10.752 4.608 17.92 15.872 17.92 27.648V726.016c0.512 11.264-6.144 22.016-16.896 27.136zM775.168 701.952c-14.848 7.68-32.768 2.048-40.96-12.288-7.68-14.848-2.048-32.768 12.288-40.96 99.328-52.736 160.768-154.624 160.768-266.24s-61.44-213.504-160.768-266.24c-14.848-7.68-20.48-26.112-12.288-40.96 5.632-10.24 15.872-15.872 26.624-15.872 4.608 0 9.728 1.024 14.336 3.584 118.784 62.976 192.512 185.856 192.512 319.488s-73.728 256-192.512 319.488zM778.752 269.82399999999996c20.992 33.28 31.744 72.192 31.744 112.128 0 39.936-10.752 78.336-31.744 112.128-20.48 32.768-49.152 58.88-82.944 76.288-14.848 7.68-32.768 1.536-40.448-13.312s-1.536-32.768 13.312-40.448c50.176-25.6 81.408-77.312 81.408-134.656 0-57.344-31.232-109.056-81.408-134.656-14.848-7.68-20.992-25.6-13.312-40.448 5.12-10.24 15.872-16.384 27.136-16.384 4.608 0 9.216 1.024 13.824 3.072 33.792 17.408 61.952 44.032 82.432 76.288z"  horiz-adv-x="1024" />

    
    <glyph glyph-name="cangku" unicode="&#58973;" d="M941.568 541.696l-411.136 247.296c-9.728 6.656-22.528 6.656-32.256 0L87.04 541.696c-15.872-9.728-19.456-28.672-9.728-45.056 9.728-15.872 28.672-19.456 45.056-9.728l35.328 22.528v-510.464c0-19.456 12.8-32.256 32.256-32.256s32.256 12.8 32.256 32.256V548.352l292.352 176.64 292.352-176.64v-549.376c0-19.456 12.8-32.256 32.256-32.256s32.256 12.8 32.256 32.256V509.44l38.4-22.528c6.656-3.072 9.728-3.072 15.872-3.072 9.728 0 22.528 6.656 28.672 15.872 6.144 13.312 3.072 35.328-12.8 41.984zM674.816 249.34400000000005H353.792c-19.456 0-32.256-12.8-32.256-32.256s12.8-32.256 32.256-32.256h321.024c19.456 0 32.256 12.8 32.256 32.256s-15.872 32.256-32.256 32.256z m0-160.256H353.792c-19.456 0-32.256-12.8-32.256-32.256s12.8-32.256 32.256-32.256h321.024c19.456 0 32.256 12.8 32.256 32.256s-15.872 32.256-32.256 32.256z"  horiz-adv-x="1024" />

    
    <glyph glyph-name="xinxi" unicode="&#58914;" d="M811.2-126.208H212.864a174.72 174.72 0 0 0-174.528 174.464V721.472A174.72 174.72 0 0 0 212.864 896h598.336a174.72 174.72 0 0 0 174.592-174.528v-673.216a174.848 174.848 0 0 0-174.592-174.464zM212.864 846.144a124.8 124.8 0 0 1-124.672-124.672v-673.216a124.8 124.8 0 0 1 124.672-124.544h598.336a124.8 124.8 0 0 1 124.672 124.544V721.472A124.8 124.8 0 0 1 811.2 846.144H212.864zM736.384 397.376H586.752a99.84 99.84 0 0 0-99.648 99.776V646.72a99.84 99.84 0 0 0 99.648 99.712h149.632a99.84 99.84 0 0 0 99.776-99.712v-149.568c-0.064-55.04-44.8-99.776-99.776-99.776zM586.752 696.576a49.92 49.92 0 0 1-49.792-49.856v-149.568c0-27.52 22.4-49.92 49.792-49.92h149.632a49.92 49.92 0 0 1 49.92 49.92V646.72a49.92 49.92 0 0 1-49.92 49.856H586.752zM362.432 696.576H212.864a24.96 24.96 0 1 0 0 49.856h149.568a24.896 24.896 0 0 0 0-49.856zM362.432 546.944H212.864a24.96 24.96 0 1 0 0 49.856h149.568a24.896 24.896 0 0 0 0-49.856zM362.432 397.376H212.864a24.96 24.96 0 1 0 0 49.856h149.568a24.896 24.896 0 0 0 0-49.856zM811.2 247.744H212.864a24.96 24.96 0 1 0 0 49.92h598.336a24.96 24.96 0 1 0 0-49.92zM586.752 98.24H212.864a24.96 24.96 0 1 0 0 49.856h373.888a24.96 24.96 0 1 0 0-49.856z"  horiz-adv-x="1024" />

    
    <glyph glyph-name="check-all" unicode="&#58894;" d="M782.419592 124.86530600000003H260.388571V602.5926529999999c0 8.359184-6.687347 15.046531-15.04653 15.046531h-39.288163c-8.359184 0-15.46449-6.687347-15.46449-15.046531v-532.897959c0-8.359184 6.687347-15.046531 15.04653-15.046531h576.365715c8.359184 0 15.046531 6.687347 15.464489 15.046531v39.288163c0 8.359184-6.269388 15.46449-14.628571 15.46449 0 0.417959-0.417959 0.417959-0.417959 0.417959zM666.226939 8.672652999999968H144.613878V486.4c0 8.359184-6.687347 15.046531-15.046531 15.046531h-39.288163c-8.359184 0-15.46449-6.687347-15.46449-15.046531v-532.897959c0-8.359184 6.687347-15.046531 15.04653-15.046531h576.365715c8.359184 0 15.046531 6.687347 15.46449 15.046531V-6.791836999999987c0 8.359184-6.269388 15.46449-14.628572 15.46449h-0.835918zM895.686531 768.940408H321.828571c-8.359184 0-15.046531-6.687347-15.04653-15.04653v-573.85796c0-7.941224 6.687347-15.046531 15.04653-15.04653h573.85796c7.941224 0 15.046531 6.687347 15.04653 15.04653V753.893878c0 8.359184-6.687347 15.046531-15.04653 15.04653z m-54.752653-534.151837H376.581224V699.141224h464.352654v-464.352653zM540.003265 359.758367l13.374694-13.374694c6.269388-6.269388 15.882449-6.269388 22.151837 0l13.374694 13.374694L782.837551 553.273469c6.269388 5.851429 6.269388 15.46449 0.417959 21.315919l-0.417959 0.417959-27.585306 27.585306c-6.269388 5.851429-15.882449 5.851429-21.733878 0l-168.85551-168.85551-59.768163 59.768163c-5.851429 5.851429-15.46449 6.269388-21.315918 0.417959l-0.41796-0.417959-27.585306-27.585306c-5.851429-6.269388-5.851429-15.882449 0-21.733878l84.427755-84.427755z"  horiz-adv-x="1040" />

    
    <glyph glyph-name="del" unicode="&#58899;" d="M1070.545455 570.181818h-93.09091v-512a186.181818 186.181818 0 0 0-186.181818-186.181818H325.818182a186.181818 186.181818 0 0 0-186.181818 186.181818V570.181818H46.545455a46.545455 46.545455 0 0 0 0 93.090909h186.181818V709.818182a186.181818 186.181818 0 0 0 186.181818 186.181818h279.272727a186.181818 186.181818 0 0 0 186.181818-186.181818v-46.545455h186.181819a46.545455 46.545455 0 0 0 0-93.090909z m-279.272728 139.636364a93.090909 93.090909 0 0 1-93.090909 93.090909H418.909091a93.090909 93.090909 0 0 1-93.090909-93.090909v-46.545455h465.454545V709.818182z m93.090909-139.636364H232.727273v-512a93.090909 93.090909 0 0 1 93.090909-93.090909h465.454545a93.090909 93.090909 0 0 1 93.090909 93.090909V570.181818z m-139.636363-465.454545a46.545455 46.545455 0 0 0-46.545455 46.545454v279.272728a46.545455 46.545455 0 0 0 93.090909 0v-279.272728a46.545455 46.545455 0 0 0-46.545454-46.545454z m-186.181818 0a46.545455 46.545455 0 0 0-46.545455 46.545454v279.272728a46.545455 46.545455 0 0 0 93.090909 0v-279.272728a46.545455 46.545455 0 0 0-46.545454-46.545454z m-186.181819 0a46.545455 46.545455 0 0 0-46.545454 46.545454v279.272728a46.545455 46.545455 0 0 0 93.090909 0v-279.272728a46.545455 46.545455 0 0 0-46.545455-46.545454z"  horiz-adv-x="1117" />

    
    <glyph glyph-name="ditukanban" unicode="&#58947;" d="M876.1 777.8c-5.9 0-11.9-1-17.8-3.2l-197.6-71.8c-5.7-2.1-11.8-3.1-17.8-3.1-6.6 0-13.1 1.2-19.3 3.7l-223.1 89.3c-6.2 2.5-12.7 3.7-19.3 3.7-6 0-12-1-17.8-3.1l-233.1-84.8c-20.6-7.5-34.2-27-34.2-48.9v-617.3c0-29.8 24.4-52 51.9-52 5.9 0 11.9 1 17.8 3.2l197.6 71.8c5.7 2.1 11.8 3.1 17.8 3.1 6.6 0 13.1-1.2 19.3-3.7l223.1-89.3c6.2-2.5 12.8-3.7 19.3-3.7 6 0 12 1 17.8 3.1l233.1 84.8c20.6 7.5 34.2 27 34.2 48.9V725.8c0 29.7-24.4 52-51.9 52zM148 42.200000000000045V659.6l208 75.6v-618c-3.5-0.9-7-1.9-10.4-3.2L148 42.200000000000045z m260 74.6V733.6l196.3-78.5c3.9-1.5 7.8-2.8 11.7-3.9v-616.8l-196.3 78.5c-3.8 1.6-7.7 2.9-11.7 3.9z m468-8.4l-208-75.6v618c3.5 0.9 7 1.9 10.4 3.2L876 725.8v-617.4z"  horiz-adv-x="1024" />

    
    <glyph glyph-name="feiyong" unicode="&#58922;" d="M998.4 128h-128v-76.8h128a25.6 25.6 0 0 0 0-51.2h-128v-102.4a25.6 25.6 0 0 0-51.2 0v102.4h-128a25.6 25.6 0 0 0 0 51.2h128v76.8h-128a25.6 25.6 0 0 0 0 51.2h71.2704l-54.912 95.104a25.6 25.6 0 0 0 44.3392 25.6L821.5808 179.20000000000005h46.7712l69.6064 120.576a25.6 25.6 0 0 0 44.3392-25.6L927.4624 179.20000000000005H998.4a25.6 25.6 0 0 0 0-51.2zM512 409.6a25.6 25.6 0 0 0 0-51.2h-51.2a25.6 25.6 0 0 0 0 51.2h51.2z m-153.6 0a25.6 25.6 0 0 0 0-51.2h-51.2a25.6 25.6 0 0 0 0 51.2h51.2z m-204.8 0h51.2a25.6 25.6 0 0 0 0-51.2H153.6a25.6 25.6 0 0 0 0 51.2zM768 665.6H153.6a25.6 25.6 0 0 0 0 51.2h614.4a25.6 25.6 0 0 0 0-51.2z m0-153.6H153.6a25.6 25.6 0 0 0 0 51.2h614.4a25.6 25.6 0 0 0 0-51.2z m128-128a25.6 25.6 0 0 0-25.6 25.6V793.6a51.2 51.2 0 0 1-51.2 51.2H102.4a51.2 51.2 0 0 1-51.2-51.2v-819.2a51.2 51.2 0 0 1 51.2-51.2h460.8a25.6 25.6 0 0 0 0-51.2H51.2a51.2 51.2 0 0 0-51.2 51.2V844.8a51.2 51.2 0 0 0 51.2 51.2h819.2a51.2 51.2 0 0 0 51.2-51.2v-435.2a25.6 25.6 0 0 0-25.6-25.6z"  horiz-adv-x="1024" />

    
    <glyph glyph-name="kaoqin" unicode="&#58896;" d="M737.536 402.24c-2.112 1.6-11.264 9.12-9.12 30.016 3.328 30.016 4.864 79.904 4.864 82.016v0.544c0 142.592-115.84 258.4-258.464 258.4-105.568 0-202.112-65.92-240.704-164.576-4.288-11.776-8-25.184-11.264-37.568-1.6-6.4-3.744-13.92-4.8-17.152a23.296 23.296 0 0 1 13.376-30.528 23.264 23.264 0 0 1 30.56 13.376c2.176 5.408 4.256 12.832 6.464 22.528 2.656 10.752 5.856 23.008 9.088 32.224 32.192 80.384 111.52 134.528 197.856 134.528 116.32 0 211.2-94.912 211.2-211.232 0-4.8-1.536-50.944-4.864-78.272-3.488-34.528 9.952-56.768 24.096-69.088 15.36 6.304 31.424 11.328 48.032 14.848a23.488 23.488 0 0 1-16.32 19.936z m-84.128 52.032c1.056 14.496 2.624 30.56 2.112 61.12-1.632 99.232-82.048 179.616-179.648 179.616-89.536 0-159.232-60.608-177.952-154.976-11.84-55.232-41.312-57.344-68.128-54.688-12.832 1.056-24.64-8-25.728-20.896-1.056-12.832 8.032-24.64 20.896-25.728 80.448-8 108.832 46.112 117.984 92.768 14.464 72.384 64.864 117.408 131.872 117.408 72.448 0 131.904-60.032 133.056-133.504 0.512-28.416-1.152-42.88-2.208-56.256-1.088-10.784-2.144-22.048-2.144-38.624-0.448-44.32 13.056-74.24 31.328-95.008a281.664 281.664 0 0 0 39.232 26.592c-14.304 14.016-23.328 34.56-22.784 67.328-0.032 14.464 1.056 24.64 2.112 34.848z m-96.512-139.392a23.648 23.648 0 0 1-2.112-33.248c6.4-7.456 13.728-14.4 21.344-20.992 8.672 13.184 18.528 25.504 29.216 37.024a169.28 169.28 0 0 0-15.232 15.04 23.744 23.744 0 0 1-33.216 2.176z m293.792 543.648h-84.128a9.6 9.6 0 0 1-9.728-9.664v-37.504a9.6 9.6 0 0 1 9.728-9.632h84.128c20.384 0 37.504-17.184 37.504-37.536V676.8c0-5.376 4.32-9.664 9.728-9.664h37.504a9.664 9.664 0 0 1 9.728 9.664V764.704c-0.032 51.424-42.432 93.824-94.464 93.824zM185.312-25.120000000000005h-85.76a37.984 37.984 0 0 0-37.504 37.568v83.104a9.6 9.6 0 0 1-9.696 9.696H14.816a9.6 9.6 0 0 1-9.664-9.696v-82.528a94.304 94.304 0 0 1 93.856-93.824h85.824a9.6 9.6 0 0 1 9.632 9.632V-33.60000000000002c-0.032 4.8-4.352 8.48-9.152 8.48z m322.752 134.112c5.632 0 13.312-2.144 21.664-5.12l-0.064 1.568c0 16.064 1.664 31.712 4.224 47.04a99.712 99.712 0 0 1-25.824 4.224c-18.24 0-48.8-8.608-97.568-23.04-35.424-10.208-75.072-21.984-104.064-26.784a23.744 23.744 0 0 1-19.264-27.392 23.712 23.712 0 0 1 27.328-19.264c31.616 5.28 72.896 17.12 109.344 27.904 33.824 9.536 72.448 20.864 84.224 20.864z m-10.72-33.28c-13.376 0-32.16-4.256-62.24-11.808-21.92-5.344-46.624-11.232-64.32-13.344a23.616 23.616 0 0 1-20.352-26.304c1.6-12.832 13.376-22.016 26.24-20.352 20.896 2.72 46.656 8.544 69.696 13.984 20.384 4.8 42.912 10.144 51.488 10.144 16.992 0 31.456-5.472 46.368-11.872a281.76 281.76 0 0 0-12.224 54.432 125.664 125.664 0 0 1-34.656 5.12z m-65.92 143.2a1496.384 1496.384 0 0 0-169.984-45.568 23.456 23.456 0 0 1-18.24-27.904c2.688-12.832 15.04-20.928 27.904-18.272 77.792 16.128 134.048 33.856 174.784 46.688 32.16 10.176 55.744 17.696 69.696 17.696 7.84 0 16.32-2.56 25.6-6.528a279.36 279.36 0 0 0 16.928 43.52c-13.952 6.016-27.808 10.176-43.072 10.176-21.44 0-46.112-8.032-83.616-19.808z m-131.36-2.176c107.2 26.304 269.696 65.984 277.248 298.656a96 96 0 0 1-27.904 71.264 103.744 103.744 0 0 1-149.088-0.992c-18.272-19.84-23.584-46.144-26.816-64.928-15.008-78.208-64.864-116.32-153.888-117.376a22.976 22.976 0 0 1-23.04-23.584c0-12.864 10.72-23.616 23.584-23.008 109.952 0.96 180.672 56.224 199.424 155.456 3.264 18.208 6.976 32.672 15.04 41.792 10.72 11.296 24.64 17.728 40.768 17.728 14.976 0 30.016-6.432 40.192-17.216 9.632-10.112 15.04-23.008 14.464-36.96-6.4-197.312-136.704-228.96-241.248-254.656a819.2 819.2 0 0 1-55.264-15.008 23.52 23.52 0 0 1-14.464-30.048 23.68 23.68 0 0 1 22.496-16.032c2.688 0 4.832 0.544 7.552 1.056 13.952 4.736 32.16 9.056 50.944 13.856zM185.312 858.528h-85.76A94.304 94.304 0 0 1 5.696 764.704v-87.424a9.6 9.6 0 0 1 9.696-9.632h37.536a9.6 9.6 0 0 1 9.6 9.632V764.704c0 20.352 17.184 37.504 37.536 37.504h85.792a9.632 9.632 0 0 1 9.664 9.664V849.44c-1.088 4.8-5.408 9.088-10.208 9.088zM233.056 278.4c4.832 1.088 9.632 2.112 14.464 2.624 91.136 18.272 243.936 49.376 251.456 234.368a23.872 23.872 0 0 1-22.496 24.672 23.808 23.808 0 0 1-24.64-22.528c-5.952-147.968-126.048-172.064-213.952-189.824-4.832-0.992-10.208-2.112-14.464-3.168a23.424 23.424 0 0 1-18.24-27.872 23.424 23.424 0 0 1 23.04-18.784c1.568 0 3.168 0.512 4.832 0.512zM1012.032 132.76800000000003c-1.216 15.424-4.096 16.8-19.264 15.552-16.832-1.312-31.04 7.072-36.896 21.728-5.92 14.944-1.536 30.432 11.52 41.184 8.8 7.232 9.984 13.088 1.888 21.6-12 12.736-24.608 24.96-37.728 36.672-10.144 8.992-14.88 7.808-23.456-3.04a34.592 34.592 0 0 0-42.752-9.952c-14.144 6.624-20.832 18.816-19.808 36.192 0.768 11.936-2.72 16.032-14.592 16.96-9.28 0.768-18.496 1.184-27.232 1.824-9.12-0.992-17.696-1.728-26.112-2.848-11.776-1.632-14.4-5.056-13.312-17.184 1.536-18.336-6.048-32.192-21.344-38.432-14.752-6.144-30.016-1.76-41.696 11.936-6.944 8.16-12.896 9.312-20.48 2.112-12.928-11.936-25.216-24.416-36.992-37.472-9.92-11.264-8.8-15.04 2.72-24.608 10.912-9.152 15.584-20.768 12.544-34.944-3.04-14.08-12.128-23.456-26.336-26.912-5.248-1.152-10.944-0.384-16.512-0.384-7.456 0-12.192-3.264-13.152-10.656a193.856 193.856 0 0 1 1.056-61.952c1.248-6.848 5.536-9.856 13.632-9.408 4.224 0.256 8.576 1.312 12.704 0.832 14.848-1.28 26.912-11.712 30.656-25.6 3.936-13.536-0.8-27.712-12.704-37.28-9.824-7.84-11.104-13.408-2.4-22.496 11.776-12.576 24.096-24.8 37.152-36.224 11.008-9.76 15.2-8.576 24.416 3.136 6.4 8.384 16.48 13.728 27.744 13.728 8.832 0 16.896-3.328 23.136-8.672 10.336-8.864 13.088-20.096 11.68-33.216-0.928-9.632 2.624-15.264 11.008-15.328 19.04-0.48 38.144-0.576 57.088 0.672 12.384 0.672 14.816 5.088 13.44 17.568-2.048 18.048 5.568 32.32 20.736 38.752 15.168 6.4 30.88 2.048 42.208-12 6.944-8.64 13.056-9.888 20.896-2.336 13.056 12.448 25.792 25.312 37.728 38.784 8.736 9.792 7.488 15.136-2.976 23.008a34.4 34.4 0 0 0-14.4 26.784c-1.184 21.76 16.96 38.624 39.488 36.416 11.52-1.12 17.216 2.144 17.408 12.192a498.304 498.304 0 0 1-0.832 54.944l0.128-1.632z m-204.608-117.152c-49.504 0.544-89.248 40.8-88.576 89.824 0.576 48.352 40.576 88.128 88.224 87.904 49.28-0.16 89.984-40.672 89.472-89.248-0.48-49.152-40.672-89.056-89.12-88.48z"  horiz-adv-x="1024" />

    
    <glyph glyph-name="gongxu" unicode="&#59154;" d="M628 390.944a77.216 77.216 0 0 0-90.24-13.28l-126.88-125.6a21.344 21.344 0 0 0-30.88 0 21.344 21.344 0 0 0 0 30.88l126.24 126.4c-15.36 29.44-11.68 66.08 13.28 90.4 14.72 14.72 33.76 22.08 52.8 22.08-20.48-21.28-19.84-55.04 0.8-76.32 21.28-21.28 55.04-21.28 76.32-0.8-0.16-20-6.72-39.04-21.44-53.76z m35.2 95.52c-5.12-5.92-14.72-13.92-27.2-25.76-13.92-13.92-32.96-13.92-46.24 0-13.92 13.92-13.92 33.12 0 46.24 11.68 12.48 25.6 27.84 24.96 27.84a97.44 97.44 0 0 1-110.72-19.68c-27.2-27.2-35.2-66.88-23.52-101.44l-115.84-115.2a44.16 44.16 0 0 1 0-61.76c16.8-16.96 44.8-16.96 62.4 0l115.84 116a98.624 98.624 0 0 1 101.28 23.52c29.28 29.44 35.2 73.6 19.04 110.24zM890.464 449.824a18.56 18.56 0 0 1-13.824 14.624 144.896 144.896 0 0 0-93.824 70.08 148.32 148.32 0 0 0-12.992 117.312 18.688 18.688 0 0 1-5.536 19.424 381.888 381.888 0 0 1-124.768 73.056 18.08 18.08 0 0 1-19.36-4.832 143.552 143.552 0 0 0-106.72-47.264 143.68 143.68 0 0 0-106.656 47.2 18.144 18.144 0 0 1-19.424 4.832 380.288 380.288 0 0 1-124.768-73.056 18.752 18.752 0 0 1-5.536-19.424 148.416 148.416 0 0 0-12.992-117.248 144.384 144.384 0 0 0-93.824-70.08 18.304 18.304 0 0 1-13.824-14.624c-4.64-24.64-6.944-49.216-6.944-72.928 0-23.744 2.304-48.32 6.944-72.928a18.432 18.432 0 0 1 13.824-14.592 144.832 144.832 0 0 0 93.824-70.112 148.576 148.576 0 0 0 12.992-117.312 18.688 18.688 0 0 1 5.536-19.424 381.888 381.888 0 0 1 124.768-73.056 18.112 18.112 0 0 1 19.36 4.832 143.84 143.84 0 0 0 106.72 47.2c40.8 0 78.688-16.736 106.656-47.2a18.176 18.176 0 0 1 19.36-4.896 380.384 380.384 0 0 1 124.768 73.056 18.752 18.752 0 0 1 5.536 19.424 148.352 148.352 0 0 0 13.056 117.312 144.704 144.704 0 0 0 93.824 70.08c7.04 1.632 12.48 7.36 13.824 14.592 4.64 24.672 6.944 49.248 6.944 72.928 0 23.744-2.304 48.32-6.944 73.024z m-33.92-127.616a183.584 183.584 0 0 1-105.408-84.448 188.064 188.064 0 0 1-19.52-134.624 345.216 345.216 0 0 0-93.472-54.688 178.752 178.752 0 0 1-124.704 50.144 181.76 181.76 0 0 1-124.704-50.144 343.904 343.904 0 0 0-93.408 54.688 185.024 185.024 0 0 1-19.52 134.624 183.68 183.68 0 0 1-105.472 84.448 356.352 356.352 0 0 0-4.352 54.624c0 17.792 1.472 36.16 4.352 54.688a183.552 183.552 0 0 1 105.344 84.448 188.064 188.064 0 0 1 19.52 134.624 343.04 343.04 0 0 0 93.472 54.72 181.696 181.696 0 0 1 124.768-50.208 179.2 179.2 0 0 1 124.768 50.144c33.952-13.216 65.312-31.584 93.472-54.688a188.224 188.224 0 0 1 19.456-134.624 183.456 183.456 0 0 1 105.408-84.448c2.88-18.56 4.384-36.896 4.384-54.688a361.44 361.44 0 0 0-4.384-54.592z"  horiz-adv-x="1024" />

    
    <glyph glyph-name="zhengzhao" unicode="&#59144;" d="M439.848671 26.522190000000023a113.232418 113.232418 0 1 1-226.464836 0V-3.318844000000013H77.668446V818.331554h964.315069V323.70619h78.077227V855.121871a40.878129 40.878129 0 0 1-38.834222 40.878129H40.878129a40.878129 40.878129 0 0 1-40.878129-40.878129v-899.318845a40.878129 40.878129 0 0 1 40.878129-40.878129h211.339929a40.878129 40.878129 0 0 1 40.878129 40.878129v70.719164a35.155191 35.155191 0 0 0 70.310382 0V-44.196973999999955a40.878129 40.878129 0 0 1 40.87813-40.878129h237.501931v81.756259h-201.937959zM275.927373 533.8197749999999a17.168814 17.168814 0 0 1 16.351251-17.577596 96.881166 96.881166 0 0 1 85.026509-92.793354 96.881166 96.881166 0 0 1 84.617728 92.793354 17.168814 17.168814 0 0 1 16.760033 17.577596 17.986377 17.986377 0 0 1-9.810751 16.351251 112.006074 112.006074 0 0 1 4.905375 33.111285 99.742635 99.742635 0 0 1-96.063603 103.012886 99.742635 99.742635 0 0 1-97.289948-103.012886 100.151417 100.151417 0 0 1 5.722938-33.111285 17.986377 17.986377 0 0 1-9.810751-16.351251zM163.512517 299.58809399999996v-32.293722a8.993188 8.993188 0 0 1 8.993189-8.993189h412.869105a8.993188 8.993188 0 0 1 8.993189 8.993189v32.293722a9.810751 9.810751 0 0 1-2.861469 6.5405A307.812313 307.812313 0 0 1 449.659422 384.614603a8.175626 8.175626 0 0 1-4.496594 0h-4.496594a9.40197 9.40197 0 0 1-4.496595 0 131.627576 131.627576 0 0 0-58.864506-13.081002 126.722201 126.722201 0 0 0-59.273287 13.489783H308.629876A312.308908 312.308908 0 0 1 163.512517 306.128594a9.40197 9.40197 0 0 1-2.452688-6.5405zM613.171939 528.0968359999999h289.417156a15.94247 15.94247 0 0 1 0 31.47616H613.171939A15.94247 15.94247 0 0 1 613.171939 528.0968359999999zM613.171939 681.798603A15.533689 15.533689 0 1 1 613.171939 650.731224h289.417156a15.533689 15.533689 0 1 1 0 31.067379zM1085.723114 146.70389h-37.199098a174.549612 174.549612 0 0 1-15.533689 37.199098l26.979565 26.570784a30.658597 30.658597 0 0 1 0 43.330817l-22.07419 21.665408a30.249816 30.249816 0 0 1-43.330817 0l-26.979565-26.979565a171.279362 171.279362 0 0 1-34.74641 13.898564v37.199098a30.249816 30.249816 0 0 1-30.658597 30.249815h-30.249815a30.249816 30.249816 0 0 1-30.658597-30.249815v-37.199098a184.769144 184.769144 0 0 1-35.972754-14.716126l-28.614691 27.797127a30.249816 30.249816 0 0 1-43.330817 0l-21.665408-21.665408a30.249816 30.249816 0 0 1 0-43.330817l27.797128-27.797128a184.769144 184.769144 0 0 1-14.716127-35.972754h-37.199097a30.249816 30.249816 0 0 1-30.249816-30.658597v-30.249815a30.249816 30.249816 0 0 1 30.249816-30.658597h37.199097a171.279362 171.279362 0 0 1 13.898564-34.74641l-26.979565-26.979566a30.249816 30.249816 0 0 1 0-43.330817l21.665408-22.074189a30.658597 30.658597 0 0 1 43.330817 0l26.570784 26.979565a174.549612 174.549612 0 0 1 37.199098-15.533689v-37.199098a30.249816 30.249816 0 0 1 30.658597-30.249816h30.249816a30.249816 30.249816 0 0 1 30.658597 30.249816v37.199098a184.769144 184.769144 0 0 1 36.790316 16.351251l25.753221-26.162002a30.658597 30.658597 0 0 1 43.330817 0l22.07419 22.07419a30.658597 30.658597 0 0 1 0 43.330817l-26.162002 25.753221a184.769144 184.769144 0 0 1 14.716126 35.972754h37.199098a30.249816 30.249816 0 0 1 30.249815 30.658597v30.249815a30.249816 30.249816 0 0 1-30.249815 30.658597z m-198.667709-137.350514a91.56701 91.56701 0 1 0 91.56701 91.567009 91.56701 91.56701 0 0 0-91.56701-91.567009z m0 137.350514a45.783505 45.783505 0 1 1 45.783505-45.783505 45.783505 45.783505 0 0 1-45.783505 45.783505z"  horiz-adv-x="1120" />

    
    <glyph glyph-name="add" unicode="&#58902;" d="M512 5.312000000000012a48 48 0 0 0-48 48V714.688a48 48 0 0 0 96 0v-661.376a48 48 0 0 0-48-48zM842.688 336H181.312a48 48 0 0 0 0 96h661.376a48 48 0 0 0 0-96z"  horiz-adv-x="1024" />

    
    <glyph glyph-name="yewudanju" unicode="&#58880;" d="M398.222 497.778h341.334v-56.89H398.222z m0 170.666h341.334v-56.888H398.222zM853.333 327.111v512H284.444v-113.778H170.667v-398.222h-56.89V-71.11000000000001h796.445V327.11h-56.889z m-512 455.111h455.111v-455.11H568.89v-113.779H455.11V327.111H341.333V782.222zM227.556 668.444h56.888v-341.333h-56.888V668.444z m625.777-682.666H170.667V270.222h227.555v-113.778h227.556V270.222h227.555v-284.444z"  horiz-adv-x="1024" />

    
    <glyph glyph-name="lingliao" unicode="&#59526;" d="M512 192h256v-64H512zM576 320h192v-64H576zM885.6 576L539.2 702.4l-21.6-60L698.4 576H251.2l287.2 206.4-37.6 52L141.6 576H128v-544c0-17.6 14.4-32 32-32h704c17.6 0 32 14.4 32 32V576h-10.4z m-53.6-512H192V544h640v-480z"  horiz-adv-x="1024" />

    
    <glyph glyph-name="check" unicode="&#59283;" d="M884.363636 849.454545c51.2 0 93.090909-41.890909 93.090909-93.090909v-744.727272c0-51.2-41.890909-93.090909-93.090909-93.090909H139.636364c-51.2 0-93.090909 41.890909-93.090909 93.090909V756.363636c0 51.2 41.890909 93.090909 93.090909 93.090909h744.727272z m23.272728-837.818181V756.363636c0 12.613818-10.658909 23.272727-23.272728 23.272728H139.636364c-12.613818 0-23.272727-10.658909-23.272728-23.272728v-744.727272c0-12.613818 10.658909-23.272727 23.272728-23.272728h744.727272c12.613818 0 23.272727 10.658909 23.272728 23.272728z m-189.789091 569.181091l-265.774546-320.698182-149.085091 137.890909a34.909091 34.909091 0 1 1-47.406545-51.293091l176.174545-162.909091a35.072 35.072 0 0 1 26.018909-9.192727 35.025455 35.025455 0 0 1 24.576 12.567272l289.28 349.09091a34.909091 34.909091 0 0 1-53.783272 44.544"  horiz-adv-x="1024" />

    
    <glyph glyph-name="xinglixiang" unicode="&#59237;" d="M704 720v32c0 52.8-43.2 96-96 96H416c-52.8 0-96-43.2-96-96v-32c-88 0-160-72-160-160v-416c0-88 72-160 160-160h32v-32c0-17.6 14.4-32 32-32s32 14.4 32 32v32h192v-32c0-17.6 14.4-32 32-32s32 14.4 32 32v32h32c88 0 160 72 160 160V560c0 88-72 160-160 160z m-320 32c0 17.6 14.4 32 32 32h192c17.6 0 32-14.4 32-32v-32H384v32z m416-608c0-52.8-43.2-96-96-96H320c-52.8 0-96 43.2-96 96V560c0 52.8 43.2 96 96 96h384c52.8 0 96-43.2 96-96v-416zM400 560c-17.6 0-32-14.4-32-32v-352c0-17.6 14.4-32 32-32s32 14.4 32 32V528c0 17.6-14.4 32-32 32z m224 0c-17.6 0-32-14.4-32-32v-352c0-17.6 14.4-32 32-32s32 14.4 32 32V528c0 17.6-14.4 32-32 32z"  horiz-adv-x="1024" />

    
    <glyph glyph-name="zhengjian" unicode="&#59245;" d="M816 784H208c-88 0-160-72-160-160v-480c0-88 72-160 160-160h608c88 0 160 72 160 160V624c0 88-72 160-160 160z m96-640c0-52.8-43.2-96-96-96H208c-52.8 0-96 43.2-96 96V624c0 52.8 43.2 96 96 96h608c52.8 0 96-43.2 96-96v-480zM459.2 406.4c22.4 22.4 36.8 54.4 36.8 89.6 0 70.4-57.6 128-128 128s-128-57.6-128-128c0-35.2 14.4-67.2 36.8-89.6C225.6 376 192 320 192 256v-57.6c0-30.4 24-54.4 52.8-54.4h246.4c28.8 0 52.8 24 52.8 54.4V256c0 64-33.6 120-84.8 150.4zM304 496c0 35.2 28.8 64 64 64s64-28.8 64-64-28.8-64-64-64-64 28.8-64 64z m176-288H256v48c0 62.4 49.6 112 112 112s112-49.6 112-112v-48z m320 208H640c-17.6 0-32-14.4-32-32s14.4-32 32-32h160c17.6 0 32 14.4 32 32s-14.4 32-32 32z m0 160H608c-17.6 0-32-14.4-32-32s14.4-32 32-32h192c17.6 0 32 14.4 32 32s-14.4 32-32 32z m0-320H672c-17.6 0-32-14.4-32-32s14.4-32 32-32h128c17.6 0 32 14.4 32 32s-14.4 32-32 32z"  horiz-adv-x="1024" />

    
    <glyph glyph-name="yinzhang2" unicode="&#58884;" d="M403.586292 853.130896v-326.812991h-75.208955V777.9219410000001a75.208955 75.208955 0 0 0 75.208955 75.208955zM620.42875 853.130896a75.208955 75.208955 0 0 0 75.208954-75.208955v-251.604036h-75.208954V853.130896zM208.88535 134.088165a75.208955 75.208955 0 0 1-75.208954-75.208955v-105.292536h75.208954zM306.235821 151.43134999999995h-75.208954v-197.799551h75.208954zM403.586292 198.812991h-75.208955v-245.181192h75.208955zM500.936763 896a75.208955 75.208955 0 0 1-75.208955-75.208955v-867.159246h75.208955zM598.287234 820.7910449999999a75.208955 75.208955 0 0 1-75.208955 75.208955v-942.368201h75.208955zM695.622663 198.812991h-75.208955v-245.181192h75.208955zM792.973133 151.43134999999995h-75.208954v-197.799551h75.208954zM890.278479 58.879209999999944a75.208955 75.208955 0 0 1-75.208955 75.208955v-180.501491h75.208955zM133.676396-46.368201h75.208954v-81.631799H133.676396zM231.026867-46.368201h75.208954v-81.631799h-75.208954zM328.377337-46.368201h75.208955v-81.631799h-75.208955zM425.727808-46.368201h75.208955v-81.631799h-75.208955zM523.078279-46.368201h75.208955v-81.631799h-75.208955zM620.413708-46.368201h75.208955v-81.631799h-75.208955zM717.764179-46.368201h75.208954v-81.631799h-75.208954zM815.11465-46.368201h75.208954v-81.631799h-75.208954z"  horiz-adv-x="1024" />

    
    <glyph glyph-name="yinzhang" unicode="&#58939;" d="M812.8 223.3l-131.5 61.2c-27.1 12.6-44.6 40-44.6 69.9v20.9c0 21 8.2 40.9 22.6 54.5 47.3 45 71.1 108.2 65.5 173.5-8.9 103.4-93.8 186.9-197.5 194-60 4.1-117-16.1-160.7-56.9-43.1-40.2-67.8-97.1-67.8-156.1 0-58.2 23-112.6 64.8-153.1 15.6-15.1 24.1-35 24.1-56v-20.9c0-29.9-17.5-57.3-44.6-69.9l-131.5-61.2c-47.9-22.3-78.9-70.8-78.9-123.7v-114.1c0-9.8 8-17.8 17.8-17.8h723.4c9.8 0 17.8 8 17.8 17.8V99.6c0 52.8-31 101.4-78.9 123.7z m-644.5-220v71.2h426.9c9.8 0 17.8 8 17.8 17.8s-8 17.8-17.8 17.8H168.9c3.7 34.9 25.4 66 57.7 81l131.5 61.2c39.6 18.4 65.1 58.5 65.1 102.2v20.9c0 30.3-12.7 60-34.9 81.5-34.8 33.8-54 79.1-54 127.6 0 49.1 20.6 96.5 56.5 130.1 36.4 34 84 50.8 134 47.4 86.4-6 157.1-75.4 164.5-161.6 4.7-54.4-15.2-107.2-54.6-144.6-21.4-20.4-33.7-49.6-33.7-80.3v-20.9c0-43.6 25.6-83.7 65.1-102.2L797.8 191c32.2-15 54-46.1 57.7-81H711c-9.8 0-17.8-8-17.8-17.8s8-17.8 17.8-17.8h145.1v-71.2l-687.8 0.1z"  horiz-adv-x="1024" />

    
    </font>
</defs>
</svg>
